<svg width="40" height="29" viewBox="0 0 40 29" fill="none" xmlns="http://www.w3.org/2000/svg">
<path d="M27.1094 19.1875H31.7969C32.4441 19.1875 32.9688 18.6628 32.9688 18.0156V6.29688C32.9688 5.64969 32.4441 5.125 31.7969 5.125H27.1094C26.4622 5.125 25.9375 5.64969 25.9375 6.29688V18.0156C25.9375 18.6628 26.4622 19.1875 27.1094 19.1875ZM28.2812 7.46875H30.625V16.8438H28.2812V7.46875ZM38.8281 21.5312H37.4547C37.5848 21.1645 37.6562 20.7702 37.6562 20.3594V3.95312C37.6562 2.01461 36.0791 0.4375 34.1406 0.4375H5.85938C3.92086 0.4375 2.34375 2.01461 2.34375 3.95312V20.3594C2.34375 20.7702 2.41523 21.1645 2.54531 21.5312H1.17188C0.524687 21.5312 0 22.0559 0 22.7031C0 25.934 2.62852 28.5625 5.85938 28.5625H34.1406C37.3715 28.5625 40 25.934 40 22.7031C40 22.0559 39.4753 21.5312 38.8281 21.5312ZM4.6875 3.95312C4.6875 3.30695 5.2132 2.78125 5.85938 2.78125H34.1406C34.7868 2.78125 35.3125 3.30695 35.3125 3.95312V20.3594C35.3125 21.0055 34.7868 21.5312 34.1406 21.5312H5.85938C5.2132 21.5312 4.6875 21.0055 4.6875 20.3594V3.95312ZM34.1406 26.2188H5.85938C4.33156 26.2188 3.0282 25.2391 2.54453 23.875H37.4555C36.9718 25.2391 35.6684 26.2188 34.1406 26.2188ZM8.20312 19.1875H12.8906C13.5378 19.1875 14.0625 18.6628 14.0625 18.0156V13.3281C14.0625 12.6809 13.5378 12.1562 12.8906 12.1562H8.20312C7.55594 12.1562 7.03125 12.6809 7.03125 13.3281V18.0156C7.03125 18.6628 7.55594 19.1875 8.20312 19.1875ZM9.375 14.5H11.7188V16.8438H9.375V14.5ZM17.6562 19.1875H22.3438C22.9909 19.1875 23.5156 18.6628 23.5156 18.0156V10.9844C23.5156 10.3372 22.9909 9.8125 22.3438 9.8125H17.6562C17.0091 9.8125 16.4844 10.3372 16.4844 10.9844V18.0156C16.4844 18.6628 17.0091 19.1875 17.6562 19.1875ZM18.8281 12.1562H21.1719V16.8438H18.8281V12.1562Z" fill="#001D45"/>
</svg>
