<svg width="40" height="41" viewBox="0 0 40 41" fill="none" xmlns="http://www.w3.org/2000/svg">
<path d="M8.20312 19.4062H22.2656C22.9128 19.4062 23.4375 18.8816 23.4375 18.2344C23.4375 17.5872 22.9128 17.0625 22.2656 17.0625H8.20312C7.55594 17.0625 7.03125 17.5872 7.03125 18.2344C7.03125 18.8816 7.55594 19.4062 8.20312 19.4062ZM8.20312 14.7188H22.2656C22.9128 14.7188 23.4375 14.1941 23.4375 13.5469C23.4375 12.8997 22.9128 12.375 22.2656 12.375H8.20312C7.55594 12.375 7.03125 12.8997 7.03125 13.5469C7.03125 14.1941 7.55594 14.7188 8.20312 14.7188ZM10.5469 10.0312H19.9219C20.5691 10.0312 21.0938 9.50656 21.0938 8.85938C21.0938 8.21219 20.5691 7.6875 19.9219 7.6875H10.5469C9.89969 7.6875 9.375 8.21219 9.375 8.85938C9.375 9.50656 9.89969 10.0312 10.5469 10.0312ZM38.8281 7.6875H34.1406C33.4934 7.6875 32.9688 8.21219 32.9688 8.85938V34.6406C32.9688 36.1684 33.9485 37.4709 35.3125 37.9547V39.3281C35.3125 39.9753 35.8372 40.5 36.4844 40.5C37.1316 40.5 37.6562 39.9753 37.6562 39.3281V37.9547C39.0202 37.4709 40 36.1684 40 34.6406V8.85938C40 8.21219 39.4753 7.6875 38.8281 7.6875ZM37.6562 34.6406C37.6562 35.2868 37.1305 35.8125 36.4844 35.8125C35.8382 35.8125 35.3125 35.2868 35.3125 34.6406V17.0625H37.6562V34.6406ZM37.6562 14.7188H35.3125V10.0312H37.6562V14.7188ZM29.2969 0.5H1.17188C0.524687 0.5 0 1.02469 0 1.67188V39.3281C0 39.9753 0.524687 40.5 1.17188 40.5C2.95867 40.5 22.2745 40.5 22.2654 40.5C22.5824 40.5 22.8866 40.3647 23.0947 40.1563L30.1255 33.1255C30.1598 33.0756 30.4688 32.7981 30.4688 32.2969V1.67188C30.4688 1.02469 29.9441 0.5 29.2969 0.5ZM23.4375 36.499V33.4688H26.4677L23.4375 36.499ZM28.125 31.125H22.2656C21.6184 31.125 21.0938 31.6497 21.0938 32.2969V38.1562H2.34375V2.84375H28.125V31.125ZM6.68805 33.1255L9.375 30.4385V32.2969C9.375 32.7709 9.66055 33.1982 10.0984 33.3795C10.5363 33.5609 11.0404 33.4606 11.3755 33.1255L11.793 32.7081C11.9595 33.1525 12.3881 33.4688 12.8906 33.4688H17.5781C18.2253 33.4688 18.75 32.9441 18.75 32.2969C18.75 31.6497 18.2253 31.125 17.5781 31.125H14.0625V29.9531C14.0625 29.4791 13.777 29.0518 13.3391 28.8705C12.9011 28.6891 12.397 28.7893 12.062 29.1245L11.7188 29.4677V27.6094C11.7188 27.1354 11.4332 26.708 10.9953 26.5267C10.5573 26.3452 10.0533 26.4456 9.7182 26.7807L5.0307 31.4682C4.57305 31.9259 4.57305 32.6678 5.0307 33.1255C5.48836 33.5832 6.23039 33.5832 6.68805 33.1255ZM8.20312 24.0938H22.2656C22.9128 24.0938 23.4375 23.5691 23.4375 22.9219C23.4375 22.2747 22.9128 21.75 22.2656 21.75H8.20312C7.55594 21.75 7.03125 22.2747 7.03125 22.9219C7.03125 23.5691 7.55594 24.0938 8.20312 24.0938Z" fill="#001D45"/>
</svg>
