<svg width="40" height="41" viewBox="0 0 40 41" fill="none" xmlns="http://www.w3.org/2000/svg">
<path d="M18.8281 18.1562C18.8281 13.6335 15.1477 9.95312 10.625 9.95312C6.10227 9.95312 2.42188 13.6335 2.42188 18.1562C2.42188 22.679 6.10227 26.3594 10.625 26.3594C15.1477 26.3594 18.8281 22.679 18.8281 18.1562ZM10.625 24.0156C7.3943 24.0156 4.76562 21.387 4.76562 18.1562C4.76562 14.9255 7.3943 12.2969 10.625 12.2969C13.8557 12.2969 16.4844 14.9255 16.4844 18.1562C16.4844 21.387 13.8557 24.0156 10.625 24.0156ZM10.625 26.3594C4.80914 26.3594 0 31.0904 0 36.9062V39.3281C0 39.9759 0.602266 40.5 1.25 40.5H20C20.6477 40.5 21.1719 39.9759 21.1719 39.3281V36.9062C21.1719 31.0904 16.4409 26.3594 10.625 26.3594ZM18.8281 38.1562H2.42188V36.9062C2.42188 32.3835 6.10227 28.7031 10.625 28.7031C15.1477 28.7031 18.8281 32.3835 18.8281 36.9062V38.1562ZM29.375 16.9062C23.5591 16.9062 18.8281 21.6373 18.8281 27.4531V29.875C18.8281 30.5227 19.3523 31.0469 20 31.0469H38.75C39.3977 31.0469 40 30.5227 40 29.875V27.4531C40 21.6373 35.1909 16.9062 29.375 16.9062ZM37.5781 28.7031H21.1719V27.4531C21.1719 22.9304 24.8523 19.25 29.375 19.25C33.8977 19.25 37.5781 22.9304 37.5781 27.4531V28.7031ZM37.5781 8.70312C37.5781 4.18039 33.8977 0.5 29.375 0.5C24.8523 0.5 21.1719 4.18039 21.1719 8.70312C21.1719 13.2259 24.8523 16.9062 29.375 16.9062C33.8977 16.9062 37.5781 13.2259 37.5781 8.70312ZM29.375 14.5625C26.1443 14.5625 23.5156 11.9338 23.5156 8.70312C23.5156 5.47242 26.1443 2.84375 29.375 2.84375C32.6057 2.84375 35.2344 5.47242 35.2344 8.70312C35.2344 11.9338 32.6057 14.5625 29.375 14.5625Z" fill="#001D45"/>
</svg>
