<svg width="32" height="41" viewBox="0 0 32 41" fill="none" xmlns="http://www.w3.org/2000/svg">
<path d="M30.5683 25.4173C29.7382 21.9917 28.195 18.6538 26.223 16.0184C25.1191 14.543 23.9066 13.3219 22.6234 12.375H25.3752C27.3137 12.375 28.8908 13.9521 28.8908 15.8906C28.8908 16.5378 29.4155 17.0625 30.0627 17.0625C30.7099 17.0625 31.2346 16.5378 31.2346 15.8906C31.2346 12.6598 28.6061 10.0312 25.3752 10.0312H21.6762C23.3197 8.20875 24.2033 5.36906 24.2033 1.67188C24.2033 1.02469 23.6787 0.5 23.0315 0.5H20.6877C18.773 0.5 17.0701 1.42328 16.0002 2.84781C14.9304 1.42328 13.2274 0.5 11.3127 0.5H8.96897C8.32178 0.5 7.79709 1.02469 7.79709 1.67188C7.79709 6.18109 9.11155 9.41484 11.5162 11.083C9.43717 12.0735 7.47858 13.7448 5.7774 16.0184C3.80537 18.6538 2.26225 21.9917 1.43217 25.4173C0.584046 28.9173 0.540921 32.2868 1.31092 34.9048C2.2799 38.1992 5.4792 40.5001 9.09123 40.5H22.9093H22.9094C26.5211 40.5 29.7208 38.199 30.6895 34.9048C31.4594 32.2868 31.4165 28.9174 30.5683 25.4173ZM10.1751 2.84375H11.3127C13.2512 2.84375 14.8283 4.42086 14.8283 6.35938C14.8283 7.00656 15.353 7.53125 16.0002 7.53125C16.6474 7.53125 17.1721 7.00656 17.1721 6.35938C17.1721 4.42086 18.7492 2.84375 20.6877 2.84375H21.8254C21.6151 6.35687 20.3541 10.0312 16.0002 10.0312C11.6463 10.0312 10.3854 6.35687 10.1751 2.84375ZM28.441 34.2435C27.7635 36.5473 25.4888 38.1562 22.9093 38.1562H9.09123C6.51178 38.1562 4.23709 36.5473 3.55951 34.2435C2.19358 29.5991 3.95381 22.3677 7.65405 17.4225C10.0895 14.1676 13.0537 12.375 16.0002 12.375C18.9468 12.375 21.9109 14.1676 24.3465 17.4225C28.0467 22.3677 29.8069 29.5991 28.441 34.2435ZM14.8283 21.75H17.1721C17.8183 21.75 18.344 22.2757 18.344 22.9219C18.344 23.5691 18.8687 24.0938 19.5158 24.0938C20.163 24.0938 20.6877 23.5691 20.6877 22.9219C20.6877 20.9834 19.1106 19.4062 17.1721 19.4062V18.2344C17.1721 17.5872 16.6474 17.0625 16.0002 17.0625C15.353 17.0625 14.8283 17.5872 14.8283 18.2344V19.4062C12.8898 19.4062 11.3127 20.9834 11.3127 22.9219C11.3127 24.8604 12.8898 26.4375 14.8283 26.4375H17.1721C17.8183 26.4375 18.344 26.9632 18.344 27.6094C18.344 28.2555 17.8183 28.7812 17.1721 28.7812H14.8283C14.1822 28.7812 13.6565 28.2555 13.6565 27.6094C13.6565 26.9622 13.1318 26.4375 12.4846 26.4375C11.8374 26.4375 11.3127 26.9622 11.3127 27.6094C11.3127 29.5479 12.8898 31.125 14.8283 31.125V32.2969C14.8283 32.9441 15.353 33.4688 16.0002 33.4688C16.6474 33.4688 17.1721 32.9441 17.1721 32.2969V31.125C19.1106 31.125 20.6877 29.5479 20.6877 27.6094C20.6877 25.6709 19.1106 24.0938 17.1721 24.0938H14.8283C14.1822 24.0938 13.6565 23.568 13.6565 22.9219C13.6565 22.2757 14.1822 21.75 14.8283 21.75Z" fill="#001D45"/>
</svg>
