<svg width="40" height="33" viewBox="0 0 40 33" fill="none" xmlns="http://www.w3.org/2000/svg">
<path d="M39.2188 20.0156C39.2188 19.3427 39.0284 18.7136 38.6991 18.1786C39.4922 17.5334 40 16.5505 40 15.4509C40 13.4787 38.3901 11.8125 36.4844 11.8125H30.5469V5.95312C30.5469 2.72227 27.9184 0.09375 24.6875 0.09375C24.0403 0.09375 23.5156 0.618437 23.5156 1.26562V7.66969L18.9563 10.7092C17.7402 11.52 16.9091 12.7598 16.6087 14.1562H14.1406V12.9844C14.1406 12.3372 13.6159 11.8125 12.9688 11.8125H1.17188C0.524687 11.8125 0 12.3372 0 12.9844V31.7344C0 32.3816 0.524687 32.9062 1.17188 32.9062H12.9688C13.6159 32.9062 14.1406 32.3816 14.1406 31.7344V30.5625H17.1895C18.8749 32.0777 21.031 32.9062 23.3145 32.9062H34.1406C36.0791 32.9062 37.6562 31.3291 37.6562 29.3906C37.6562 28.683 37.4454 28.0241 37.0843 27.472C37.9071 26.828 38.4375 25.8266 38.4375 24.7031C38.4375 23.9955 38.2266 23.3366 37.8655 22.7845C38.6884 22.1405 39.2188 21.1391 39.2188 20.0156ZM11.7969 30.5625H2.34375V14.1562H11.7969V30.5625ZM37.0061 16.5H35.7031C35.0559 16.5 34.5312 17.0247 34.5312 17.6719C34.5312 18.3191 35.0559 18.8438 35.7031 18.8438C36.3493 18.8438 36.875 19.3695 36.875 20.0156C36.875 20.6618 36.3493 21.1875 35.7031 21.1875C35.6053 21.1875 35.0909 21.1875 34.9219 21.1875C34.2747 21.1875 33.75 21.7122 33.75 22.3594C33.75 23.0066 34.2747 23.5312 34.9219 23.5312C35.568 23.5312 36.0938 24.057 36.0938 24.7031C36.0938 25.3493 35.568 25.875 34.9219 25.875C34.8241 25.875 34.3097 25.875 34.1406 25.875C33.4934 25.875 32.9688 26.3997 32.9688 27.0469C32.9688 27.6941 33.4934 28.2188 34.1406 28.2188C34.7868 28.2188 35.3125 28.7445 35.3125 29.3906C35.3125 30.0368 34.7868 30.5625 34.1406 30.5625H23.3145C21.4902 30.5625 19.7749 29.852 18.4848 28.562C18.2651 28.3422 17.967 28.2188 17.6562 28.2188H14.1406V16.5H17.6562C18.3034 16.5 18.8281 15.9753 18.8281 15.3281C18.8281 14.2533 19.362 13.2556 20.2564 12.6594L25.3376 9.27195C25.6636 9.05461 25.8595 8.68867 25.8595 8.29688V2.63828C27.2236 3.12195 28.2032 4.42531 28.2032 5.95312V12.9844C28.2032 13.6316 28.7279 14.1562 29.3751 14.1562H36.4845C37.0978 14.1562 37.6563 14.7733 37.6563 15.4509C37.6562 15.9098 37.3912 16.3078 37.0061 16.5ZM8.28125 18.8438C8.92844 18.8438 9.45312 18.3191 9.45312 17.6719C9.45312 17.0247 8.92844 16.5 8.28125 16.5C7.63406 16.5 7.10938 17.0247 7.10938 17.6719C7.10938 18.3191 7.63406 18.8438 8.28125 18.8438Z" fill="#001D45"/>
</svg>
