<svg width="40" height="41" viewBox="0 0 40 41" fill="none" xmlns="http://www.w3.org/2000/svg">
<path d="M38.6261 1.87384C36.7943 0.0420088 33.8292 0.0417744 31.9972 1.87384C31.098 2.77303 24.8658 9.00522 23.9953 9.87574H1.17185C0.524674 9.87574 0 10.4004 0 11.0476V39.3281C0 39.9753 0.524674 40.5 1.17185 40.5H29.4524C30.0995 40.5 30.6242 39.9753 30.6242 39.3281V16.5047C31.478 15.651 37.7406 9.38833 38.6261 8.50289C40.4579 6.67106 40.4582 3.7059 38.6261 1.87384ZM28.2805 38.1562H2.34369V12.2194H21.6516L20.5343 13.3367C16.8866 16.9844 14.0254 21.4456 12.2234 26.2815H5.85923C5.21206 26.2815 4.68738 26.8062 4.68738 27.4533C4.68738 28.1005 5.21206 28.6244 5.85923 28.6244H13.0459H13.0467C13.1761 28.6244 13.3183 28.5992 13.4296 28.5607C18.5689 26.783 23.3179 23.8109 27.1632 19.9656L28.2805 18.8484V38.1562ZM25.506 18.3084C22.5291 21.2853 18.973 23.7026 15.1102 25.3898C16.7974 21.5269 19.2147 17.9708 22.1915 14.994L30.3399 6.84558L33.6544 10.16C32.8066 11.0078 26.3127 17.5017 25.506 18.3084ZM36.9688 6.84558L35.3116 8.50281L31.9972 5.18836L33.6544 3.53106C34.5703 2.61515 36.0528 2.61507 36.9688 3.53106C37.8848 4.44705 37.8848 5.92951 36.9688 6.84558Z" fill="#001D45"/>
</svg>
