<svg width="40" height="33" viewBox="0 0 40 33" fill="none" xmlns="http://www.w3.org/2000/svg">
<path d="M16.25 0C15.2554 0 14.3016 0.395088 13.5983 1.09835C12.8951 1.80161 12.5 2.75544 12.5 3.75V5H3.75C2.75544 5 1.80161 5.39509 1.09835 6.09835C0.395088 6.80161 0 7.75544 0 8.75L0 28.75C0 29.7446 0.395088 30.6984 1.09835 31.4017C1.80161 32.1049 2.75544 32.5 3.75 32.5H36.25C37.2446 32.5 38.1984 32.1049 38.9016 31.4017C39.6049 30.6984 40 29.7446 40 28.75V8.75C40 7.75544 39.6049 6.80161 38.9016 6.09835C38.1984 5.39509 37.2446 5 36.25 5H27.5V3.75C27.5 2.75544 27.1049 1.80161 26.4017 1.09835C25.6984 0.395088 24.7446 0 23.75 0H16.25ZM16.25 2.5H23.75C24.0815 2.5 24.3995 2.6317 24.6339 2.86612C24.8683 3.10054 25 3.41848 25 3.75V5H15V3.75C15 3.41848 15.1317 3.10054 15.3661 2.86612C15.6005 2.6317 15.9185 2.5 16.25 2.5ZM20.965 19.785L37.5 15.3775V28.75C37.5 29.0815 37.3683 29.3995 37.1339 29.6339C36.8995 29.8683 36.5815 30 36.25 30H3.75C3.41848 30 3.10054 29.8683 2.86612 29.6339C2.6317 29.3995 2.5 29.0815 2.5 28.75V15.375L19.035 19.785C19.6673 19.9534 20.3327 19.9534 20.965 19.785ZM3.75 7.5H36.25C36.5815 7.5 36.8995 7.6317 37.1339 7.86612C37.3683 8.10054 37.5 8.41848 37.5 8.75V12.79L20.3225 17.37C20.1112 17.4264 19.8888 17.4264 19.6775 17.37L2.5 12.79V8.75C2.5 8.41848 2.6317 8.10054 2.86612 7.86612C3.10054 7.6317 3.41848 7.5 3.75 7.5Z" fill="#001D45"/>
</svg>
