<svg width="36" height="41" viewBox="0 0 36 41" fill="none" xmlns="http://www.w3.org/2000/svg">
<path d="M34.4062 0.5H1.59375C0.946562 0.5 0.421875 1.02469 0.421875 1.67188V39.3281C0.421875 39.9753 0.946562 40.5 1.59375 40.5H34.4062C35.0534 40.5 35.5781 39.9753 35.5781 39.3281V1.67188C35.5781 1.02469 35.0534 0.5 34.4062 0.5ZM33.2344 38.1562H2.76562V2.84375H33.2344V38.1562ZM6.28125 16.9844H29.7188C30.3659 16.9844 30.8906 16.4597 30.8906 15.8125V6.35938C30.8906 5.71219 30.3659 5.1875 29.7188 5.1875H6.28125C5.63406 5.1875 5.10938 5.71219 5.10938 6.35938V15.8125C5.10938 16.4597 5.63406 16.9844 6.28125 16.9844ZM7.45312 7.53125H28.5469V14.6406H7.45312V7.53125ZM6.28125 26.3594H10.9688C11.6159 26.3594 12.1406 25.8347 12.1406 25.1875V20.5C12.1406 19.8528 11.6159 19.3281 10.9688 19.3281H6.28125C5.63406 19.3281 5.10938 19.8528 5.10938 20.5V25.1875C5.10938 25.8347 5.63406 26.3594 6.28125 26.3594ZM7.45312 21.6719H9.79688V24.0156H7.45312V21.6719ZM6.28125 35.7344H10.9688C11.6159 35.7344 12.1406 35.2097 12.1406 34.5625V29.875C12.1406 29.2278 11.6159 28.7031 10.9688 28.7031H6.28125C5.63406 28.7031 5.10938 29.2278 5.10938 29.875V34.5625C5.10938 35.2097 5.63406 35.7344 6.28125 35.7344ZM7.45312 31.0469H9.79688V33.3906H7.45312V31.0469ZM20.3438 19.3281H15.6562C15.0091 19.3281 14.4844 19.8528 14.4844 20.5V25.1875C14.4844 25.8347 15.0091 26.3594 15.6562 26.3594H20.3438C20.9909 26.3594 21.5156 25.8347 21.5156 25.1875V20.5C21.5156 19.8528 20.9909 19.3281 20.3438 19.3281ZM19.1719 24.0156H16.8281V21.6719H19.1719V24.0156ZM20.3438 28.7031H15.6562C15.0091 28.7031 14.4844 29.2278 14.4844 29.875V34.5625C14.4844 35.2097 15.0091 35.7344 15.6562 35.7344H20.3438C20.9909 35.7344 21.5156 35.2097 21.5156 34.5625V29.875C21.5156 29.2278 20.9909 28.7031 20.3438 28.7031ZM19.1719 33.3906H16.8281V31.0469H19.1719V33.3906ZM29.7188 19.3281H25.0312C24.3841 19.3281 23.8594 19.8528 23.8594 20.5V25.1875C23.8594 25.8347 24.3841 26.3594 25.0312 26.3594H29.7188C30.3659 26.3594 30.8906 25.8347 30.8906 25.1875V20.5C30.8906 19.8528 30.3659 19.3281 29.7188 19.3281ZM28.5469 24.0156H26.2031V21.6719H28.5469V24.0156ZM29.7188 28.7031H25.0312C24.3841 28.7031 23.8594 29.2278 23.8594 29.875V34.5625C23.8594 35.2097 24.3841 35.7344 25.0312 35.7344H29.7188C30.3659 35.7344 30.8906 35.2097 30.8906 34.5625V29.875C30.8906 29.2278 30.3659 28.7031 29.7188 28.7031ZM28.5469 33.3906H26.2031V31.0469H28.5469V33.3906ZM13.3125 9.95312H10.9688C10.3216 9.95312 9.79688 10.4778 9.79688 11.125C9.79688 11.7722 10.3216 12.2969 10.9688 12.2969H13.3125C13.9597 12.2969 14.4844 11.7722 14.4844 11.125C14.4844 10.4778 13.9597 9.95312 13.3125 9.95312Z" fill="#001D45"/>
</svg>
