<svg width="357" height="218" viewBox="0 0 357 218" fill="none" xmlns="http://www.w3.org/2000/svg">
<g clip-path="url(#clip0)">
<path d="M336.652 70.1996C330.845 73.2049 326.388 78.3634 323.191 84.0601C319.995 89.7568 317.924 95.9918 315.853 102.182L314.052 134.119C320.805 122.681 326.253 109.179 327.693 95.9918C326.208 95.8572 324.677 95.7226 323.191 95.5881C326.208 95.1395 328.729 92.9416 330.349 90.3848C331.97 87.7831 332.78 84.8226 333.591 81.907C331.745 82.1761 329.944 82.4453 328.098 82.7144C332.465 79.8436 335.572 75.2683 336.652 70.1996Z" fill="#E0E0E0"/>
<path d="M313.108 141.61C313.108 141.61 298.431 124.116 298.611 107.385H304.554C304.554 107.385 298.116 103.168 298.611 100.791C299.107 98.4137 299.287 89.4874 299.287 89.4874L304.689 90.833C304.689 90.833 300.637 88.8145 300.097 85.5849C299.602 82.4001 301.268 67.5079 301.268 67.5079C301.268 67.5079 307.885 74.4158 309.911 81.503C311.937 88.5902 317.294 96.8437 315.719 118.464C314.143 140.13 313.108 141.61 313.108 141.61Z" fill="#EBEBEB"/>
<path d="M320.535 143.27C320.535 143.27 336.427 132.729 339.984 119.227L335.212 117.927C335.212 117.927 341.334 115.953 341.424 113.934C341.514 111.916 343.36 104.694 343.36 104.694L338.723 104.604C338.723 104.604 342.46 103.842 343.54 101.375C344.666 98.9076 346.556 86.6171 346.556 86.6171C346.556 86.6171 339.714 90.7438 336.517 95.992C333.321 101.24 327.198 106.713 323.732 124.431C320.265 142.149 320.535 143.27 320.535 143.27Z" fill="#EBEBEB"/>
<path d="M305.319 82.8492C305.319 82.8492 305.319 82.8941 305.364 83.0287C305.409 83.1632 305.454 83.3427 305.499 83.5669C305.589 84.0604 305.77 84.7332 305.95 85.6303C306.13 86.5274 306.4 87.6488 306.625 88.9048C306.895 90.2056 307.21 91.641 307.48 93.3007C308.11 96.5303 308.786 100.433 309.461 104.739C310.136 109.045 310.767 113.8 311.352 118.824C311.937 123.848 312.387 128.602 312.702 132.953C313.018 137.304 313.288 141.252 313.423 144.526C313.513 146.186 313.558 147.666 313.603 148.967C313.648 150.268 313.693 151.389 313.693 152.331C313.693 153.228 313.693 153.946 313.738 154.439C313.738 154.664 313.738 154.843 313.738 154.978C313.738 155.112 313.738 155.157 313.738 155.157C313.738 155.157 313.738 155.112 313.738 154.978C313.738 154.843 313.738 154.664 313.693 154.439C313.693 153.946 313.648 153.228 313.603 152.331C313.558 151.389 313.558 150.268 313.468 148.967C313.423 147.666 313.378 146.141 313.288 144.526C313.153 141.207 312.882 137.304 312.522 132.953C312.162 128.602 311.712 123.803 311.127 118.824C310.541 113.8 309.866 109.045 309.236 104.739C308.561 100.433 307.93 96.5303 307.3 93.3007C307.03 91.6859 306.715 90.2056 306.49 88.9048C306.265 87.604 306.04 86.5274 305.815 85.5855C305.634 84.6883 305.499 83.9706 305.409 83.4772C305.364 83.253 305.319 83.0735 305.319 82.939C305.319 82.8941 305.274 82.8492 305.319 82.8492Z" fill="#E0E0E0"/>
<path d="M311.036 152.331C311.036 152.331 297.621 137.169 293.434 127.974L296.585 126.628C294.289 126.987 291.948 126.045 290.193 124.565C288.437 123.084 287.131 121.111 285.826 119.227L289.968 118.509C286.186 117.433 282.855 114.876 280.919 111.512C285.826 112.319 290.238 115.01 293.884 118.33C296.855 121.021 299.332 124.206 301.763 127.391C302.933 128.961 303.968 130.62 304.824 132.37C307.075 137.035 311.036 146.768 311.036 152.331Z" fill="#EBEBEB"/>
<path d="M340.163 95.4524C340.163 95.4524 340.163 95.4972 340.118 95.587C340.073 95.6767 339.983 95.8561 339.893 96.0355C339.713 96.4392 339.443 96.9775 339.083 97.74C338.723 98.4577 338.273 99.3549 337.777 100.387C337.282 101.418 336.697 102.629 336.112 103.93C334.851 106.577 333.456 109.717 331.925 113.215C330.394 116.759 328.774 120.661 327.198 124.788C325.577 128.915 324.137 132.907 322.921 136.54C321.661 140.174 320.58 143.448 319.725 146.229C319.275 147.62 318.914 148.876 318.599 149.997C318.239 151.119 317.969 152.061 317.744 152.823C317.519 153.586 317.339 154.214 317.204 154.617C317.159 154.797 317.114 154.976 317.069 155.066C317.024 155.156 317.024 155.245 317.024 155.201C317.024 155.201 317.024 155.156 317.069 155.021C317.114 154.887 317.159 154.752 317.204 154.528C317.339 154.079 317.474 153.496 317.699 152.733C317.924 151.971 318.194 150.984 318.509 149.863C318.824 148.741 319.185 147.485 319.635 146.095C320.49 143.314 321.526 139.994 322.786 136.361C324.047 132.728 325.487 128.736 327.063 124.609C328.684 120.482 330.304 116.58 331.835 113.036C333.366 109.537 334.806 106.352 336.067 103.751C336.697 102.45 337.282 101.239 337.777 100.207C338.273 99.1754 338.723 98.2783 339.128 97.5606C339.488 96.8429 339.803 96.3047 339.983 95.901C340.073 95.7215 340.163 95.587 340.208 95.4524C340.163 95.4972 340.163 95.4524 340.163 95.4524Z" fill="#E0E0E0"/>
<path d="M312.207 158.835C312.207 158.835 312.162 158.745 312.162 158.565C312.117 158.341 312.072 158.072 312.027 157.758C311.982 157.399 311.892 156.995 311.802 156.502C311.712 156.009 311.622 155.426 311.487 154.842C311.262 153.586 310.902 152.151 310.451 150.536C310.001 148.921 309.461 147.172 308.741 145.378C308.065 143.584 307.3 141.879 306.58 140.399C305.86 138.919 305.139 137.573 304.464 136.496C304.149 135.958 303.834 135.465 303.564 135.016C303.294 134.568 303.068 134.209 302.888 133.94C302.708 133.67 302.573 133.446 302.438 133.267C302.348 133.087 302.303 133.042 302.303 132.998C302.303 132.998 302.393 133.087 302.483 133.222C302.618 133.401 302.753 133.626 302.978 133.895C303.203 134.164 303.429 134.523 303.699 134.971C303.969 135.375 304.284 135.868 304.599 136.407C305.274 137.483 305.995 138.829 306.76 140.309C307.48 141.834 308.246 143.494 308.966 145.333C309.641 147.127 310.181 148.921 310.632 150.536C311.082 152.151 311.397 153.631 311.622 154.887C311.757 155.515 311.802 156.098 311.892 156.592C311.982 157.085 312.027 157.534 312.072 157.893C312.117 158.207 312.117 158.476 312.162 158.7C312.207 158.745 312.207 158.835 312.207 158.835Z" fill="#E0E0E0"/>
<path d="M329.899 155.247H300.502V161.212H329.899V155.247Z" fill="#E0E0E0"/>
<path d="M303.293 161.212L306.49 181.307H324.272L327.243 161.212H303.293Z" fill="#E0E0E0"/>
<path d="M328.099 161.213C328.099 161.257 322.516 161.347 315.674 161.347C308.831 161.347 303.248 161.302 303.248 161.213C303.248 161.123 308.831 161.078 315.674 161.078C322.561 161.123 328.099 161.168 328.099 161.213Z" fill="#EBEBEB"/>
<path d="M170.578 123.084L156.127 181.307H159.953L174.764 123.084H170.578Z" fill="#F5F5F5"/>
<path d="M197.814 123.084L211.32 181.307H207.538L193.672 123.084H197.814Z" fill="#F5F5F5"/>
<path d="M186.514 180.455H182.102L181.427 113.62H185.838L186.514 180.455Z" fill="#F5F5F5"/>
<path d="M214.876 74.3704H152.389V114.247H214.876V74.3704Z" fill="#EBEBEB"/>
<path d="M199.344 122.456H167.966V126.314H199.344V122.456Z" fill="#F5F5F5"/>
<path d="M156.531 109.044C156.531 109.044 156.576 109.268 156.576 109.762H156.486C156.441 107.833 156.396 101.329 156.396 93.7031C156.396 89.0829 156.441 84.9113 156.441 81.8162C156.441 80.336 156.486 79.1249 156.486 78.2278C156.486 77.8241 156.486 77.5101 156.531 77.2409C156.531 77.0166 156.531 76.8821 156.576 76.8821C156.576 76.8821 156.576 77.0166 156.621 77.2409C156.621 77.5101 156.621 77.8241 156.666 78.2278C156.666 79.1249 156.711 80.336 156.711 81.8162C156.711 84.9113 156.756 89.0829 156.756 93.7031C156.756 101.373 156.711 107.833 156.666 109.762H156.576C156.531 109.313 156.531 109.044 156.531 109.044Z" fill="#F5F5F5"/>
<path d="M161.214 109.044C161.214 109.044 161.259 109.268 161.259 109.762H161.169C161.124 107.833 161.079 101.329 161.079 93.7031C161.079 89.0829 161.124 84.9113 161.124 81.8162C161.124 80.336 161.169 79.1249 161.169 78.2278C161.169 77.8241 161.169 77.5101 161.214 77.2409C161.214 77.0166 161.214 76.8821 161.259 76.8821C161.259 76.8821 161.259 77.0166 161.304 77.2409C161.304 77.5101 161.304 77.8241 161.349 78.2278C161.349 79.1249 161.394 80.336 161.394 81.8162C161.394 84.9113 161.439 89.0829 161.439 93.7031C161.439 101.373 161.394 107.833 161.349 109.762H161.169C161.169 109.313 161.169 109.044 161.214 109.044Z" fill="#F5F5F5"/>
<path d="M165.85 109.044C165.85 109.044 165.895 109.268 165.895 109.762H165.805C165.76 107.833 165.715 101.329 165.715 93.7031C165.715 89.0829 165.76 84.9113 165.76 81.8162C165.76 80.336 165.805 79.1249 165.805 78.2278C165.805 77.8241 165.805 77.5101 165.85 77.2409C165.85 77.0166 165.85 76.8821 165.895 76.8821C165.895 76.8821 165.895 77.0166 165.94 77.2409C165.94 77.5101 165.94 77.8241 165.985 78.2278C165.985 79.1249 166.03 80.336 166.03 81.8162C166.03 84.9113 166.075 89.0829 166.075 93.7031C166.075 101.373 166.03 107.833 165.985 109.762H165.895C165.805 109.313 165.85 109.044 165.85 109.044Z" fill="#F5F5F5"/>
<path d="M170.487 109.044C170.487 109.044 170.532 109.268 170.532 109.762H170.442C170.397 107.833 170.352 101.329 170.352 93.7031C170.352 89.0829 170.397 84.9113 170.397 81.8162C170.397 80.336 170.442 79.1249 170.442 78.2278C170.442 77.8241 170.442 77.5101 170.487 77.2409C170.487 77.0166 170.487 76.8821 170.532 76.8821C170.532 76.8821 170.532 77.0166 170.577 77.2409C170.577 77.5101 170.577 77.8241 170.622 78.2278C170.622 79.1249 170.667 80.336 170.667 81.8162C170.667 84.9113 170.712 89.0829 170.712 93.7031C170.712 101.373 170.667 107.833 170.622 109.762H170.532C170.487 109.313 170.487 109.044 170.487 109.044Z" fill="#F5F5F5"/>
<path d="M175.169 109.044C175.169 109.044 175.214 109.268 175.214 109.762H175.124C175.079 107.833 175.034 101.329 175.034 93.7031C175.034 89.0829 175.079 84.9113 175.079 81.8162C175.079 80.336 175.124 79.1249 175.124 78.2278C175.124 77.8241 175.124 77.5101 175.169 77.2409C175.169 77.0166 175.169 76.8821 175.214 76.8821C175.214 76.8821 175.214 77.0166 175.259 77.2409C175.259 77.5101 175.259 77.8241 175.304 78.2278C175.304 79.1249 175.349 80.336 175.349 81.8162C175.349 84.9113 175.394 89.0829 175.394 93.7031C175.394 101.373 175.349 107.833 175.304 109.762H175.124C175.124 109.313 175.124 109.044 175.169 109.044Z" fill="#F5F5F5"/>
<path d="M179.805 109.044C179.805 109.044 179.85 109.268 179.85 109.762H179.76C179.715 107.833 179.67 101.329 179.67 93.7031C179.67 89.0829 179.715 84.9113 179.715 81.8162C179.715 80.336 179.76 79.1249 179.76 78.2278C179.76 77.8241 179.76 77.5101 179.805 77.2409C179.805 77.0166 179.805 76.8821 179.85 76.8821C179.85 76.8821 179.85 77.0166 179.895 77.2409C179.895 77.5101 179.895 77.8241 179.94 78.2278C179.94 79.1249 179.985 80.336 179.985 81.8162C179.985 84.9113 180.03 89.0829 180.03 93.7031C180.03 101.373 179.985 107.833 179.94 109.762H179.85C179.76 109.313 179.805 109.044 179.805 109.044Z" fill="#F5F5F5"/>
<path d="M184.443 109.044C184.443 109.044 184.488 109.268 184.488 109.762H184.398C184.353 107.833 184.308 101.329 184.308 93.7031C184.308 89.0829 184.353 84.9113 184.353 81.8162C184.353 80.336 184.398 79.1249 184.398 78.2278C184.398 77.8241 184.398 77.5101 184.443 77.2409C184.443 77.0166 184.443 76.8821 184.488 76.8821C184.488 76.8821 184.488 77.0166 184.533 77.2409C184.533 77.5101 184.533 77.8241 184.578 78.2278C184.578 79.1249 184.623 80.336 184.623 81.8162C184.623 84.9113 184.668 89.0829 184.668 93.7031C184.668 101.373 184.623 107.833 184.578 109.762H184.488C184.443 109.313 184.443 109.044 184.443 109.044Z" fill="#F5F5F5"/>
<path d="M189.126 109.044C189.126 109.044 189.171 109.268 189.171 109.762H189.081C189.035 107.833 188.99 101.329 188.99 93.7031C188.99 89.0829 189.035 84.9113 189.035 81.8162C189.035 80.336 189.081 79.1249 189.081 78.2278C189.081 77.8241 189.081 77.5101 189.126 77.2409C189.126 77.0166 189.126 76.8821 189.171 76.8821C189.171 76.8821 189.171 77.0166 189.216 77.2409C189.216 77.5101 189.216 77.8241 189.261 78.2278C189.261 79.1249 189.306 80.336 189.306 81.8162C189.306 84.9113 189.351 89.0829 189.351 93.7031C189.351 101.373 189.306 107.833 189.261 109.762H189.081C189.081 109.313 189.081 109.044 189.126 109.044Z" fill="#F5F5F5"/>
<path d="M193.762 109.044C193.762 109.044 193.807 109.268 193.807 109.762H193.717C193.672 107.833 193.627 101.329 193.627 93.7031C193.627 89.0829 193.672 84.9113 193.672 81.8162C193.672 80.336 193.717 79.1249 193.717 78.2278C193.717 77.8241 193.717 77.5101 193.762 77.2409C193.762 77.0166 193.762 76.8821 193.807 76.8821C193.807 76.8821 193.807 77.0166 193.852 77.2409C193.852 77.5101 193.852 77.8241 193.897 78.2278C193.897 79.1249 193.942 80.336 193.942 81.8162C193.942 84.9113 193.987 89.0829 193.987 93.7031C193.987 101.373 193.942 107.833 193.897 109.762H193.807C193.717 109.313 193.762 109.044 193.762 109.044Z" fill="#F5F5F5"/>
<path d="M198.399 109.044C198.399 109.044 198.444 109.268 198.444 109.762H198.354C198.309 107.833 198.264 101.329 198.264 93.7031C198.264 89.0829 198.309 84.9113 198.309 81.8162C198.309 80.336 198.354 79.1249 198.354 78.2278C198.354 77.8241 198.354 77.5101 198.399 77.2409C198.399 77.0166 198.399 76.8821 198.444 76.8821C198.444 76.8821 198.444 77.0166 198.489 77.2409C198.489 77.5101 198.489 77.8241 198.534 78.2278C198.534 79.1249 198.579 80.336 198.579 81.8162C198.579 84.9113 198.624 89.0829 198.624 93.7031C198.624 101.373 198.579 107.833 198.534 109.762H198.444C198.399 109.313 198.399 109.044 198.399 109.044Z" fill="#F5F5F5"/>
<path d="M203.081 109.044C203.081 109.044 203.126 109.268 203.126 109.762H203.036C202.991 107.833 202.946 101.329 202.946 93.7031C202.946 89.0829 202.991 84.9113 202.991 81.8162C202.991 80.336 203.036 79.1249 203.036 78.2278C203.036 77.8241 203.036 77.5101 203.081 77.2409C203.081 77.0166 203.081 76.8821 203.126 76.8821C203.126 76.8821 203.126 77.0166 203.171 77.2409C203.171 77.5101 203.171 77.8241 203.216 78.2278C203.216 79.1249 203.261 80.336 203.261 81.8162C203.261 84.9113 203.306 89.0829 203.306 93.7031C203.306 101.373 203.261 107.833 203.216 109.762H203.036C203.036 109.313 203.036 109.044 203.081 109.044Z" fill="#F5F5F5"/>
<path d="M207.717 109.044C207.717 109.044 207.762 109.268 207.762 109.762H207.672C207.627 107.833 207.582 101.329 207.582 93.7031C207.582 89.0829 207.627 84.9113 207.627 81.8162C207.627 80.336 207.672 79.1249 207.672 78.2278C207.672 77.8241 207.672 77.5101 207.717 77.2409C207.717 77.0166 207.717 76.8821 207.762 76.8821C207.762 76.8821 207.762 77.0166 207.807 77.2409C207.807 77.5101 207.807 77.8241 207.852 78.2278C207.852 79.1249 207.897 80.336 207.897 81.8162C207.897 84.9113 207.942 89.0829 207.942 93.7031C207.942 101.373 207.897 107.833 207.852 109.762H207.762C207.672 109.313 207.717 109.044 207.717 109.044Z" fill="#F5F5F5"/>
<path d="M212.355 109.044C212.355 109.044 212.4 109.268 212.4 109.762H212.31C212.265 107.833 212.22 101.329 212.22 93.7031C212.22 89.0829 212.265 84.9113 212.265 81.8162C212.265 80.336 212.31 79.1249 212.31 78.2278C212.31 77.8241 212.31 77.5101 212.355 77.2409C212.355 77.0166 212.355 76.8821 212.4 76.8821C212.4 76.8821 212.4 77.0166 212.445 77.2409C212.445 77.5101 212.445 77.8241 212.49 78.2278C212.49 79.1249 212.535 80.336 212.535 81.8162C212.535 84.9113 212.58 89.0829 212.58 93.7031C212.58 101.373 212.535 107.833 212.49 109.762H212.4C212.355 109.313 212.355 109.044 212.355 109.044Z" fill="#F5F5F5"/>
<path d="M259.625 45.8868L256.113 77.3757C255.528 82.7135 253.547 90.4736 245.084 89.1279C237.836 87.4234 236.755 80.2464 237.295 75.2674C237.565 72.8901 237.791 70.9164 237.791 70.6921C237.791 70.6921 229.822 69.0325 230.137 61.0481C230.272 57.1905 231.218 49.251 232.163 42.074C233.199 34.3588 239.951 28.7518 247.74 29.1555L248.505 29.2004C256.879 30.0526 260.75 37.5884 259.625 45.8868Z" fill="#FFCEB5"/>
<path d="M237.79 70.6918C237.79 70.6918 242.832 71.2301 248.37 68.135C248.37 68.135 245.533 73.8317 237.565 72.7103L237.79 70.6918Z" fill="#DEA78E"/>
<path d="M245.354 46.9629C245.489 47.1423 246.479 46.5144 247.83 46.6489C249.18 46.7386 250.081 47.546 250.261 47.4115C250.351 47.3218 250.216 47.0526 249.811 46.6938C249.405 46.3349 248.73 45.9761 247.92 45.8864C247.109 45.7967 246.344 46.0658 245.939 46.3349C245.489 46.6041 245.309 46.8732 245.354 46.9629Z" fill="#263238"/>
<path d="M245.084 49.7439C245.039 50.3271 245.489 50.8205 246.074 50.8653C246.659 50.9102 247.2 50.5065 247.245 49.9682C247.29 49.3851 246.839 48.8917 246.254 48.8468C245.624 48.7571 245.129 49.1608 245.084 49.7439Z" fill="#263238"/>
<path d="M240.897 55.8001C240.897 55.7103 240.131 55.5758 238.916 55.3515C238.601 55.3066 238.286 55.2169 238.286 54.9926C238.241 54.7684 238.376 54.4095 238.556 54.0955C238.871 53.333 239.231 52.5704 239.591 51.763C241.077 48.4437 242.112 45.6626 241.977 45.6177C241.842 45.5729 240.537 48.2194 239.096 51.5387C238.736 52.3461 238.421 53.1536 238.106 53.9161C237.971 54.275 237.745 54.6787 237.881 55.1272C237.971 55.3515 238.196 55.5309 238.376 55.6206C238.556 55.7103 238.736 55.7103 238.916 55.7103C240.131 55.8001 240.897 55.8449 240.897 55.8001Z" fill="#263238"/>
<path d="M246.569 42.0738C246.659 42.3878 247.739 42.2981 249 42.5224C250.26 42.7018 251.296 43.1504 251.476 42.8812C251.566 42.7467 251.386 42.4775 250.981 42.1635C250.576 41.8495 249.945 41.5355 249.18 41.401C248.415 41.2664 247.694 41.3561 247.244 41.5355C246.749 41.6701 246.524 41.8944 246.569 42.0738Z" fill="#263238"/>
<path d="M234.054 42.0739C234.144 42.343 235.224 42.2084 236.485 42.2981C237.745 42.3878 238.781 42.7018 238.916 42.4776C239.006 42.343 238.826 42.1187 238.375 41.8944C237.97 41.6702 237.295 41.401 236.53 41.3562C235.764 41.3113 235.089 41.401 234.639 41.5804C234.234 41.715 234.009 41.9393 234.054 42.0739Z" fill="#263238"/>
<path d="M258.679 51.763C258.814 51.7181 264.262 50.4173 263.811 55.8897C263.361 61.3622 257.959 59.7474 257.959 59.6128C257.959 59.4334 258.679 51.763 258.679 51.763Z" fill="#FFCEB5"/>
<path d="M259.805 57.6385C259.85 57.6385 259.895 57.7283 260.03 57.818C260.165 57.9077 260.435 57.9525 260.75 57.9077C261.335 57.7283 261.921 56.876 262.011 55.8892C262.056 55.3957 262.011 54.9023 261.876 54.4986C261.741 54.0949 261.516 53.7809 261.2 53.6912C260.93 53.6015 260.705 53.7361 260.615 53.9155C260.525 54.0501 260.57 54.1846 260.525 54.1846C260.525 54.1846 260.435 54.0949 260.48 53.8706C260.525 53.7809 260.57 53.6464 260.705 53.5567C260.84 53.4669 261.065 53.4221 261.245 53.4669C261.651 53.5118 262.011 53.9604 262.191 54.4089C262.371 54.8575 262.461 55.3957 262.416 55.9789C262.281 57.0554 261.651 58.0423 260.84 58.2217C260.435 58.3114 260.12 58.132 259.985 57.9974C259.805 57.7731 259.805 57.6834 259.805 57.6385Z" fill="#6F4C47"/>
<path d="M241.707 59.7024C241.662 59.5678 242.788 59.3884 243.643 58.4464C244.093 57.9978 244.363 57.5044 244.588 57.1007C244.813 56.7419 244.948 56.4727 244.993 56.5176C245.038 56.5624 244.993 56.7867 244.858 57.2353C244.723 57.639 244.453 58.2221 243.958 58.7155C243.463 59.2089 242.878 59.4781 242.427 59.6126C242.022 59.7921 241.707 59.7472 241.707 59.7024Z" fill="#263238"/>
<path d="M233.649 45.2588C233.784 45.4382 234.775 44.8103 236.125 44.9448C237.476 45.0345 238.376 45.8419 238.556 45.7074C238.646 45.6177 238.511 45.3485 238.106 44.9897C237.701 44.6308 237.025 44.272 236.215 44.1823C235.405 44.0926 234.64 44.3617 234.234 44.6308C233.739 44.9 233.604 45.1691 233.649 45.2588Z" fill="#263238"/>
<path d="M233.558 48.3094C233.513 48.8925 233.964 49.3859 234.549 49.4308C235.134 49.4756 235.674 49.0719 235.719 48.5337C235.764 47.9505 235.314 47.4571 234.729 47.4123C234.144 47.3225 233.603 47.7263 233.558 48.3094Z" fill="#263238"/>
<path d="M263.001 46.874C262.596 48.3991 261.651 51.853 260.3 51.539C257.599 50.911 257.779 55.2621 256.474 54.7238C255.168 54.2304 254.853 50.7765 254.988 49.4308C255.438 45.1695 257.104 42.0744 255.258 37.23C254.088 35.3012 252.017 34.0003 249.721 34.0003C247.425 34.0003 245.264 35.2115 244.093 37.1403C243.823 35.66 243.013 33.4172 241.662 32.6995C240.312 32.0267 238.511 32.1164 237.386 33.1481C236.26 34.1798 235.99 36.0637 236.935 37.2748C236.305 37.4991 235.585 37.23 235.225 36.6917C235.18 37.4094 235.45 38.0822 235.945 38.6205C235.405 38.4859 234.909 38.1719 234.549 37.7234C234.684 38.3514 234.864 38.9794 235 39.5625C232.749 39.697 230.453 37.544 229.777 35.6152C228.742 32.6995 229.417 29.6942 231.038 27.0028C232.614 24.3563 235.54 22.4275 238.691 22.3826C241.797 22.3378 244.453 23.7283 245.714 26.5991C247.695 25.1189 251.792 24.5357 254.042 25.5226C256.338 26.5094 258.004 28.7073 258.319 31.1744C259.715 30.5464 261.426 30.9501 262.641 31.8921C262.731 31.9818 262.821 32.0715 262.956 32.1164C264.622 33.5966 265.342 35.8394 264.982 38.0374C264.847 38.8896 264.577 39.7868 264.397 40.5045C263.857 42.523 263.001 46.874 263.001 46.874Z" fill="#263238"/>
<path d="M234.864 36.5575C234.864 36.5575 234.774 36.5126 234.684 36.4229C234.549 36.3332 234.414 36.1538 234.234 35.9295C233.874 35.4809 233.424 34.7184 233.289 33.6867C233.154 32.6999 233.334 31.3542 234.279 30.2777C235.18 29.246 236.665 28.4834 238.286 28.6628C239.096 28.7526 239.817 29.0665 240.447 29.4702C241.077 29.874 241.617 30.3674 242.068 30.8608C242.968 31.8925 243.508 33.0587 243.778 34.0456C244.048 35.0324 244.093 35.8846 244.093 36.4229C244.093 36.6921 244.048 36.9163 244.048 37.0958C244.048 37.2303 244.003 37.32 244.003 37.32C243.958 37.32 244.183 36.0192 243.598 34.0904C243.283 33.1484 242.788 32.027 241.887 31.0402C241.032 30.0534 239.772 29.1114 238.241 28.932C236.71 28.7526 235.27 29.4702 234.414 30.4571C233.514 31.4439 233.334 32.7447 233.424 33.6867C233.559 34.6735 233.919 35.4361 234.279 35.8846C234.639 36.3332 234.864 36.5575 234.864 36.5575Z" fill="#455A64"/>
<path d="M233.874 38.9794C233.874 38.9794 233.829 38.8897 233.694 38.7103C233.604 38.5308 233.424 38.3065 233.244 37.9477C232.883 37.2749 232.343 36.3329 231.938 35.0321C231.713 34.4041 231.578 33.6415 231.533 32.8341C231.488 32.0267 231.578 31.1744 231.938 30.3222C232.253 29.4699 232.883 28.7074 233.694 28.1242C234.504 27.586 235.495 27.1823 236.575 27.0926C237.61 27.0028 238.646 27.1823 239.591 27.4963C240.537 27.8102 241.347 28.3037 242.067 28.8419C243.508 29.9185 244.498 31.309 244.859 32.6547C245.219 34.0004 245.039 35.1218 244.768 35.8395C244.633 36.1983 244.498 36.4674 244.408 36.6469C244.318 36.8263 244.228 36.916 244.228 36.8712C244.183 36.8712 244.453 36.5123 244.723 35.7946C244.949 35.0769 245.084 33.9555 244.723 32.6995C244.363 31.3987 243.418 30.053 241.977 29.0214C240.582 27.9897 238.691 27.1823 236.62 27.3168C235.63 27.4065 234.639 27.7654 233.874 28.3037C233.109 28.8419 232.523 29.6045 232.163 30.4119C231.848 31.2193 231.713 32.0716 231.758 32.8341C231.803 33.5967 231.938 34.3144 232.118 34.9872C232.523 36.288 233.019 37.23 233.334 37.9028C233.514 38.2168 233.649 38.486 233.739 38.6654C233.829 38.8448 233.874 38.9345 233.874 38.9794Z" fill="#455A64"/>
<path d="M261.066 43.5095C261.021 43.4647 261.561 43.1058 262.192 42.3433C262.822 41.5807 263.542 40.3696 263.812 38.8445C264.082 37.3643 263.857 35.9737 263.542 35.0318C263.227 34.0898 262.912 33.5515 262.912 33.5515C262.912 33.5515 263.002 33.6861 263.182 33.9104C263.317 34.1346 263.497 34.5383 263.677 34.9869C264.037 35.9289 264.308 37.3643 264.037 38.9342C263.767 40.4593 263.002 41.7153 262.327 42.4778C262.012 42.8815 261.696 43.1507 261.471 43.3301C261.201 43.4198 261.066 43.5095 261.066 43.5095Z" fill="#455A64"/>
<path d="M256.204 43.4652C256.204 43.4652 256.474 43.3306 256.879 43.0615C257.284 42.7475 257.825 42.2541 258.185 41.4467L258.41 40.9532L258.365 41.4915C258.32 42.2541 258.275 43.1063 258.185 44.0034L258.005 43.9137C258.635 43.4652 259.22 42.882 259.715 42.1644C260.346 41.2672 260.706 40.2804 260.841 39.3384C260.976 38.3964 260.931 37.5442 260.751 36.8713C260.436 35.4808 259.895 34.7183 259.94 34.7183C259.94 34.7183 259.985 34.7631 260.03 34.8528C260.075 34.9425 260.166 35.0771 260.256 35.2565C260.436 35.6154 260.706 36.1537 260.886 36.8713C261.066 37.589 261.156 38.4413 261.021 39.4281C260.886 40.3701 260.526 41.4018 259.895 42.3438C259.4 43.0615 258.77 43.6895 258.14 44.138L257.96 44.2726V44.0483C258.05 43.1063 258.095 42.2541 258.185 41.5364L258.365 41.5812C258.005 42.4335 257.374 42.9718 256.969 43.2409C256.744 43.3755 256.564 43.4652 256.429 43.51C256.294 43.4652 256.204 43.4652 256.204 43.4652Z" fill="#455A64"/>
<path d="M254.493 32.3853C254.448 32.4302 254.223 31.6228 253.232 30.9051C252.737 30.5462 252.107 30.1874 251.297 30.0528C250.531 29.9182 249.586 30.008 248.731 30.322C247.875 30.6808 247.155 31.2191 246.615 31.8022C246.074 32.3853 245.759 33.0582 245.489 33.5964C245.039 34.7178 244.994 35.5252 244.949 35.4804C244.949 35.4804 244.949 35.301 244.994 34.9421C245.039 34.5833 245.129 34.0899 245.354 33.5067C245.579 32.9236 245.894 32.2508 246.435 31.6228C246.975 30.9948 247.74 30.4117 248.596 30.0528C249.496 29.694 250.441 29.6043 251.252 29.7837C252.062 29.9182 252.737 30.322 253.232 30.7257C253.728 31.1294 254.043 31.5331 254.178 31.8471C254.268 31.9816 254.313 32.1162 254.358 32.2059C254.493 32.3405 254.493 32.3853 254.493 32.3853Z" fill="#455A64"/>
<path d="M253.143 28.3485C253.098 28.3933 252.603 28.0345 251.657 27.8102C250.712 27.5859 249.316 27.6756 248.011 28.3933C246.75 29.111 245.94 30.2773 245.49 31.1296C245.039 31.9818 244.904 32.6098 244.859 32.5649C244.859 32.5649 244.859 32.4304 244.949 32.1612C244.994 31.8921 245.129 31.5333 245.355 31.0847C245.76 30.1876 246.57 28.9765 247.921 28.2139C249.271 27.4514 250.757 27.4065 251.702 27.6756C252.197 27.8102 252.558 27.9448 252.783 28.1242C253.053 28.2588 253.143 28.3485 253.143 28.3485Z" fill="#455A64"/>
<path d="M220.728 152.599L271.06 153.272C271.06 153.272 285.15 147.396 288.977 147.261C292.849 147.082 300.502 147.575 304.058 153.272C307.705 159.148 308.245 169.555 296.945 177.091C285.916 184.447 235.585 191.22 228.697 190.592L215.956 173.592C215.956 173.592 215.821 159.642 215.956 158.969C216.091 158.296 218.207 152.33 218.207 152.33L220.728 152.599Z" fill="#263238"/>
<path d="M250.846 176.149L276.912 185.793L265.027 218.179C262.011 216.878 261.921 197.859 261.921 197.859L244.948 192.342L250.846 176.149Z" fill="#009ECD"/>
<g opacity="0.6">
<g opacity="0.6">
<g opacity="0.6">
<g opacity="0.6">
<g opacity="0.6">
<g opacity="0.6">
<g opacity="0.6">
<g opacity="0.6">
<g opacity="0.6">
<g opacity="0.6">
<g opacity="0.6">
<g opacity="0.6">
<g opacity="0.6">
<path opacity="0.6" d="M264.172 187.318C264.577 186.735 265.433 186.601 266.018 186.959C266.603 187.318 266.783 188.215 266.378 188.799C265.973 189.382 264.937 189.606 264.397 189.157C263.857 188.709 263.677 187.677 264.217 187.229" fill="white"/>
</g>
</g>
</g>
</g>
</g>
</g>
</g>
</g>
</g>
</g>
</g>
</g>
</g>
<path d="M276.912 185.793L274.3 184.806L263.856 216.295C263.856 216.295 263.946 217.954 265.027 218.179L276.912 185.793Z" fill="#263238"/>
<path d="M261.56 198.308C261.74 198.353 262.1 197.59 262.866 197.007C263.631 196.379 264.486 196.245 264.486 196.065C264.531 195.931 263.496 195.796 262.506 196.514C261.56 197.276 261.38 198.263 261.56 198.308Z" fill="#263238"/>
<path d="M261.696 202.211C261.831 202.3 262.371 201.717 263.226 201.403C264.082 201.089 264.847 201.224 264.892 201.044C264.982 200.91 264.082 200.461 263.001 200.82C261.966 201.224 261.561 202.166 261.696 202.211Z" fill="#263238"/>
<path d="M265.072 205.62C265.162 205.485 264.441 204.992 263.406 205.081C262.371 205.171 261.785 205.799 261.875 205.889C261.965 206.023 262.596 205.709 263.451 205.664C264.306 205.575 264.982 205.754 265.072 205.62Z" fill="#263238"/>
<path d="M257.825 196.603C258.005 196.603 258.05 195.796 258.41 194.898C258.77 194.001 259.355 193.418 259.22 193.284C259.13 193.149 258.32 193.598 257.87 194.629C257.419 195.706 257.644 196.648 257.825 196.603Z" fill="#263238"/>
<path d="M254.222 194.45C254.267 194.495 254.628 193.867 254.808 192.836C254.898 192.297 254.943 191.669 254.898 190.952C254.853 190.593 254.808 190.234 254.763 189.83C254.718 189.651 254.673 189.427 254.538 189.202C254.448 188.978 254.042 188.709 253.727 188.843C253.412 188.933 253.187 189.157 253.097 189.382C253.007 189.606 252.962 189.83 252.962 190.01C252.917 190.413 252.917 190.772 252.917 191.131C252.962 191.849 253.142 192.477 253.367 192.97C253.772 193.957 254.267 194.45 254.357 194.406C254.448 194.361 254.087 193.822 253.772 192.836C253.637 192.342 253.502 191.759 253.502 191.086C253.502 190.772 253.502 190.413 253.547 190.055C253.592 189.696 253.682 189.382 253.862 189.337C253.952 189.337 253.952 189.337 254.042 189.427C254.087 189.516 254.132 189.696 254.177 189.875C254.267 190.234 254.312 190.593 254.357 190.907C254.448 191.58 254.448 192.163 254.403 192.701C254.357 193.778 254.132 194.406 254.222 194.45Z" fill="#263238"/>
<path d="M254.537 194.316C254.582 194.271 254.132 193.733 253.142 193.329C252.647 193.105 252.016 192.925 251.296 192.88C250.936 192.88 250.531 192.88 250.171 192.925C249.765 193.015 249.27 193.06 248.955 193.643C248.82 193.957 249 194.316 249.18 194.495C249.36 194.675 249.54 194.764 249.72 194.899C250.08 195.078 250.441 195.213 250.801 195.303C251.521 195.437 252.196 195.392 252.737 195.213C253.817 194.899 254.222 194.316 254.177 194.271C254.132 194.181 253.592 194.63 252.602 194.809C252.106 194.899 251.521 194.944 250.891 194.764C250.576 194.675 250.261 194.585 249.945 194.405C249.63 194.226 249.405 194.002 249.45 193.867C249.495 193.688 249.855 193.508 250.171 193.508C250.531 193.463 250.891 193.419 251.206 193.419C251.881 193.419 252.466 193.553 252.962 193.688C253.952 194.002 254.492 194.405 254.537 194.316Z" fill="#263238"/>
<path d="M229.327 172.157L204.116 183.82L218.522 215.174C221.448 213.604 220.008 194.675 220.008 194.675L236.485 187.857L229.327 172.157Z" fill="#009ECD"/>
<g opacity="0.6">
<g opacity="0.6">
<g opacity="0.6">
<g opacity="0.6">
<g opacity="0.6">
<g opacity="0.6">
<g opacity="0.6">
<g opacity="0.6">
<g opacity="0.6">
<g opacity="0.6">
<g opacity="0.6">
<g opacity="0.6">
<g opacity="0.6">
<path opacity="0.6" d="M216.902 184.313C216.451 183.775 215.596 183.685 215.011 184.089C214.471 184.492 214.335 185.389 214.786 185.928C215.236 186.466 216.271 186.645 216.766 186.152C217.262 185.659 217.352 184.627 216.811 184.223" fill="white"/>
</g>
</g>
</g>
</g>
</g>
</g>
</g>
</g>
</g>
</g>
</g>
</g>
</g>
<path d="M204.116 183.82L206.682 182.653L219.557 213.2C219.557 213.2 219.602 214.86 218.522 215.174L204.116 183.82Z" fill="#263238"/>
<path d="M220.412 195.079C220.277 195.124 219.827 194.406 219.017 193.868C218.206 193.329 217.351 193.24 217.351 193.06C217.306 192.926 218.341 192.701 219.332 193.374C220.322 194.047 220.547 195.034 220.412 195.079Z" fill="#263238"/>
<path d="M220.548 198.981C220.413 199.07 219.828 198.532 218.973 198.308C218.072 198.039 217.307 198.263 217.262 198.084C217.172 197.949 218.027 197.456 219.108 197.725C220.188 198.039 220.683 198.891 220.548 198.981Z" fill="#263238"/>
<path d="M217.441 202.659C217.351 202.524 218.027 201.986 219.017 201.986C220.052 201.986 220.683 202.569 220.593 202.704C220.503 202.838 219.827 202.569 219.017 202.614C218.207 202.524 217.531 202.793 217.441 202.659Z" fill="#263238"/>
<path d="M223.969 193.105C223.789 193.105 223.699 192.298 223.248 191.445C222.798 190.593 222.213 190.055 222.303 189.92C222.393 189.786 223.248 190.189 223.789 191.176C224.284 192.163 224.149 193.105 223.969 193.105Z" fill="#263238"/>
<path d="M227.346 190.638C227.301 190.683 226.896 190.1 226.626 189.068C226.491 188.53 226.401 187.902 226.356 187.184C226.356 186.825 226.356 186.466 226.401 186.062C226.446 185.883 226.446 185.659 226.536 185.434C226.626 185.21 226.986 184.896 227.301 184.986C227.616 185.031 227.842 185.255 227.977 185.479C228.112 185.704 228.112 185.928 228.157 186.107C228.247 186.511 228.247 186.87 228.247 187.229C228.247 187.946 228.112 188.574 227.977 189.113C227.616 190.144 227.166 190.638 227.121 190.638C227.031 190.593 227.346 190.01 227.571 189.023C227.661 188.53 227.752 187.946 227.707 187.274C227.707 186.96 227.661 186.601 227.571 186.242C227.526 185.883 227.391 185.569 227.211 185.569C227.121 185.569 227.121 185.569 227.031 185.704C226.986 185.838 226.941 185.973 226.941 186.197C226.896 186.556 226.851 186.915 226.851 187.229C226.851 187.902 226.896 188.53 226.986 189.023C227.211 190.01 227.436 190.638 227.346 190.638Z" fill="#263238"/>
<path d="M227.076 190.548C227.03 190.503 227.436 189.965 228.426 189.427C228.921 189.158 229.552 188.933 230.272 188.844C230.632 188.799 231.037 188.799 231.397 188.799C231.802 188.844 232.298 188.889 232.658 189.427C232.793 189.741 232.703 190.1 232.523 190.279C232.343 190.459 232.163 190.593 232.028 190.683C231.667 190.907 231.307 191.087 230.947 191.176C230.227 191.401 229.552 191.356 229.011 191.266C227.931 191.042 227.436 190.459 227.481 190.414C227.526 190.324 228.066 190.728 229.056 190.817C229.552 190.862 230.137 190.862 230.767 190.638C231.082 190.548 231.397 190.369 231.667 190.189C231.983 190.01 232.208 189.741 232.118 189.651C232.028 189.517 231.667 189.337 231.352 189.337C230.992 189.292 230.632 189.292 230.317 189.337C229.642 189.382 229.056 189.561 228.606 189.741C227.616 190.189 227.121 190.638 227.076 190.548Z" fill="#263238"/>
<path d="M218.207 152.33C218.207 152.33 196.463 144.256 188.495 145.288C184.038 145.871 177.015 149.28 176.52 154.977C175.98 160.673 177.375 168.344 185.118 172.067C192.862 175.79 223.7 189.561 231.038 191.714C238.376 193.822 256.653 198.801 256.653 198.801L263.586 179.064C263.586 179.064 225.725 166.011 223.7 164.531C221.719 163.051 216.632 161.077 216.632 161.077L218.207 152.33Z" fill="#263238"/>
<path d="M293.749 155.022C293.749 155.022 293.704 155.022 293.614 154.977C293.524 154.932 293.344 154.887 293.164 154.842C292.759 154.708 292.218 154.573 291.453 154.394C290.733 154.214 289.787 154.035 288.752 153.9C287.671 153.811 286.456 153.811 285.105 153.9C283.755 154.035 282.269 154.259 280.739 154.708C279.973 154.932 279.208 155.246 278.443 155.605C277.677 155.964 276.867 156.367 276.057 156.771C272.815 158.341 269.169 159.911 265.297 161.436C257.554 164.531 250.126 166.011 244.813 167.178C242.157 167.761 239.996 168.254 238.511 168.613C237.791 168.793 237.205 168.927 236.8 169.017C236.62 169.062 236.485 169.107 236.35 169.107C236.26 169.107 236.215 169.151 236.215 169.151C236.215 169.151 236.26 169.151 236.35 169.107C236.44 169.062 236.62 169.017 236.8 168.972C237.205 168.882 237.745 168.703 238.511 168.523C239.996 168.165 242.112 167.626 244.768 167.043C250.081 165.787 257.464 164.307 265.207 161.212C269.079 159.687 272.68 158.117 275.967 156.592C276.777 156.188 277.587 155.829 278.353 155.47C279.118 155.111 279.928 154.797 280.694 154.573C282.224 154.125 283.71 153.855 285.105 153.766C286.456 153.676 287.717 153.676 288.797 153.811C289.877 153.945 290.778 154.125 291.543 154.304C292.263 154.483 292.849 154.663 293.209 154.797C293.389 154.842 293.524 154.932 293.659 154.932C293.704 155.022 293.749 155.022 293.749 155.022Z" fill="#455A64"/>
<path d="M292.579 152.196C292.579 152.241 291.904 152.106 290.868 152.016C289.788 151.882 288.347 151.792 286.682 151.882C285.061 151.971 283.575 152.196 282.54 152.42C281.504 152.644 280.874 152.824 280.829 152.779C280.829 152.779 280.964 152.689 281.279 152.599C281.549 152.51 282 152.375 282.495 152.241C283.53 151.971 285.016 151.702 286.637 151.613C288.302 151.523 289.788 151.657 290.823 151.792C291.364 151.882 291.769 151.971 292.084 152.016C292.444 152.106 292.579 152.151 292.579 152.196Z" fill="#455A64"/>
<path d="M209.068 158.072C209.023 158.117 208.438 157.623 207.403 156.995C206.367 156.367 204.882 155.56 203.081 154.932C201.325 154.304 199.659 153.99 198.444 153.855C197.228 153.721 196.463 153.676 196.463 153.631C196.463 153.631 196.643 153.586 197.003 153.586C197.364 153.586 197.859 153.586 198.444 153.676C199.659 153.766 201.37 154.08 203.126 154.708C204.927 155.336 206.412 156.143 207.448 156.861C207.943 157.22 208.348 157.489 208.618 157.713C208.933 157.937 209.068 158.072 209.068 158.072Z" fill="#455A64"/>
<path d="M219.964 187.497C219.964 187.497 220.009 187.497 220.144 187.542C220.279 187.587 220.414 187.676 220.639 187.766C221.089 187.946 221.719 188.26 222.575 188.574C224.286 189.246 226.762 190.144 229.958 191.22C236.396 193.328 245.579 195.975 256.654 198.756L256.519 198.801C258.59 193.104 260.841 186.824 263.227 180.23L263.272 180.365C260.616 179.288 257.825 178.122 254.943 176.956C236.621 169.42 220.144 162.692 208.934 158.072C207.043 156.098 205.333 154.349 203.712 152.958C202.091 151.567 200.606 150.491 199.345 149.683C198.084 148.876 197.049 148.383 196.329 148.024C195.969 147.844 195.698 147.755 195.518 147.665C195.338 147.575 195.248 147.53 195.248 147.53C195.248 147.53 195.338 147.575 195.518 147.665C195.698 147.755 195.969 147.844 196.329 148.024C197.049 148.383 198.084 148.876 199.345 149.639C200.606 150.401 202.136 151.478 203.757 152.913C205.378 154.304 207.133 156.053 209.024 158.027H208.979C220.189 162.602 236.666 169.33 255.033 176.821C257.87 177.988 260.706 179.154 263.362 180.23L263.452 180.275L263.407 180.365C261.021 186.959 258.725 193.239 256.654 198.935L256.609 199.025L256.519 198.98C245.489 196.199 236.261 193.508 229.868 191.355C226.672 190.278 224.15 189.336 222.485 188.663C221.629 188.349 220.999 188.035 220.594 187.811C220.369 187.721 220.234 187.632 220.099 187.587C220.009 187.497 219.964 187.497 219.964 187.497Z" fill="#455A64"/>
<path d="M273.671 83.3422C273.671 83.3422 279.928 86.9306 281.189 91.1471C281.954 93.7039 287.806 126.494 288.707 132.953C289.652 139.457 287.671 144.212 284.925 146.365C282.179 148.518 273.761 151.344 273.761 151.344L261.966 155.157L258.589 146.589L269.799 130.531L268.718 119.72L273.671 83.3422Z" fill="#009ECD"/>
<path d="M261.38 77.6899L256.698 74.9985C256.698 74.9985 252.422 79.9775 246.569 79.3944C240.717 78.7664 237.295 74.3257 237.295 74.3257L219.873 77.8693C218.702 78.0936 216.586 78.8561 214.516 81.7269C212.265 84.9565 201.46 99.3105 201.46 99.3105H193.897C191.826 99.3105 189.89 100.477 188.945 102.271C187.639 104.693 186.109 107.968 186.244 109.358C186.514 111.646 186.064 117.926 189.125 119.899C190.115 120.527 193.582 122.366 196.328 122.277C200.335 122.097 204.972 120.034 207.673 118.15C209.924 116.58 215.236 111.108 217.262 108.954V108.999L218.567 154.528L264.216 153.227L273.67 83.3866C273.67 83.3417 261.83 77.6899 261.38 77.6899Z" fill="#009ECD"/>
<path d="M217.082 89.8909C217.127 89.8909 217.262 95.5427 217.352 102.495C217.442 109.448 217.442 115.1 217.397 115.1C217.352 115.1 217.217 109.448 217.127 102.495C217.037 95.5427 217.037 89.8909 217.082 89.8909Z" fill="#263238"/>
<path d="M279.208 126.672C279.208 126.717 278.802 126.717 278.127 126.852C277.452 126.986 276.461 127.256 275.291 127.749C274.12 128.242 272.86 129.005 271.509 129.992C270.204 130.979 268.853 132.235 267.548 133.625C266.242 135.016 265.072 136.406 263.946 137.662C262.821 138.918 261.785 139.995 260.84 140.802C259.894 141.654 259.084 142.282 258.499 142.686C258.229 142.91 257.959 143.045 257.824 143.135C257.644 143.224 257.598 143.269 257.553 143.269C257.553 143.269 257.644 143.179 257.779 143.09C257.914 142.955 258.139 142.821 258.454 142.596C259.039 142.193 259.804 141.52 260.75 140.668C261.65 139.815 262.686 138.739 263.811 137.483C264.937 136.227 266.107 134.836 267.413 133.446C268.718 132.055 270.069 130.799 271.419 129.768C272.77 128.781 274.075 128.018 275.246 127.525C276.416 127.031 277.407 126.807 278.127 126.672C278.487 126.583 278.757 126.583 278.937 126.583C279.118 126.672 279.208 126.672 279.208 126.672Z" fill="#263238"/>
<path d="M280.243 123.578C280.243 123.622 279.568 123.712 278.442 124.026C277.362 124.34 275.876 124.878 274.391 125.731C272.905 126.628 271.735 127.66 270.969 128.467C270.204 129.274 269.754 129.857 269.754 129.813C269.754 129.813 269.844 129.633 270.024 129.409C270.204 129.14 270.474 128.781 270.879 128.377C271.645 127.525 272.815 126.448 274.301 125.551C275.786 124.654 277.317 124.116 278.397 123.892C278.938 123.757 279.388 123.667 279.703 123.667C280.063 123.578 280.243 123.578 280.243 123.578Z" fill="#263238"/>
<g opacity="0.3">
<g opacity="0.3">
<path opacity="0.3" d="M195.247 115.593C197.678 116.266 200.559 112.767 202.765 110.614C203.89 109.493 205.106 108.282 205.511 106.757C205.871 105.501 205.646 104.11 205.151 102.854C204.656 101.643 204.295 100.836 203.53 99.7592C203.71 101.643 204.205 104.514 203.575 106.846C203.035 108.82 201.819 110.345 200.469 111.825C199.073 113.395 197.453 115.055 195.247 115.593Z" fill="black"/>
</g>
</g>
<path d="M205.601 113.619C205.556 113.619 205.826 112.812 206.051 111.511C206.186 110.838 206.231 110.076 206.276 109.179C206.276 108.326 206.231 107.339 206.096 106.353C205.916 105.366 205.691 104.424 205.421 103.616C205.106 102.809 204.791 102.091 204.476 101.508C203.845 100.342 203.35 99.6691 203.395 99.6691C203.395 99.6691 203.53 99.8036 203.755 100.118C203.89 100.252 204.025 100.432 204.16 100.656C204.296 100.88 204.476 101.149 204.611 101.418C204.926 102.002 205.286 102.719 205.601 103.572C205.916 104.424 206.141 105.366 206.321 106.353C206.456 107.384 206.501 108.326 206.501 109.223C206.456 110.121 206.366 110.883 206.231 111.556C206.186 111.87 206.096 112.184 206.006 112.453C205.961 112.722 205.871 112.946 205.826 113.126C205.691 113.44 205.601 113.619 205.601 113.619Z" fill="#263238"/>
<path d="M239.141 76.0748C239.186 76.1197 238.645 76.4337 238.06 76.9271C237.475 77.4205 237.115 77.9139 237.07 77.8691C237.025 77.8242 237.295 77.2859 237.925 76.7477C238.51 76.2542 239.141 76.03 239.141 76.0748Z" fill="#263238"/>
<path d="M243.913 78.8557C243.958 78.9005 243.508 79.3939 243.148 80.1116C242.788 80.8293 242.652 81.5022 242.562 81.5022C242.517 81.5022 242.517 80.7845 242.923 80.0219C243.328 79.2145 243.868 78.8108 243.913 78.8557Z" fill="#263238"/>
<path d="M252.061 81.6816C252.016 81.6816 251.791 81.0536 251.521 80.3359C251.251 79.5734 250.981 78.9903 251.071 78.9454C251.116 78.9006 251.476 79.4837 251.746 80.2462C252.016 81.0088 252.106 81.6816 252.061 81.6816Z" fill="#263238"/>
<path d="M257.283 79.2154C257.193 79.2154 257.013 78.4528 256.518 77.6006C256.023 76.7483 255.392 76.21 255.437 76.1652C255.482 76.1203 256.203 76.5689 256.743 77.466C257.238 78.3631 257.328 79.2154 257.283 79.2154Z" fill="#263238"/>
<path d="M272.32 93.973C272.365 93.973 271.599 100.208 270.609 107.834C269.573 115.504 268.718 121.694 268.628 121.694C268.583 121.694 269.348 115.459 270.339 107.789C271.374 100.163 272.229 93.973 272.32 93.973Z" fill="#263238"/>
<path d="M203.892 104.021C203.892 104.021 203.892 104.245 203.892 104.649C203.892 104.873 203.847 105.098 203.802 105.412C203.757 105.546 203.757 105.726 203.712 105.86C203.667 106.04 203.622 106.174 203.577 106.354C203.396 107.071 203.081 107.923 202.676 108.776C202.226 109.673 201.686 110.57 201.01 111.512C200.29 112.409 199.57 113.172 198.76 113.8C197.994 114.383 197.229 114.876 196.509 115.145C196.329 115.235 196.193 115.28 196.013 115.37C195.833 115.414 195.698 115.459 195.563 115.504C195.428 115.549 195.293 115.594 195.158 115.594C195.023 115.639 194.933 115.639 194.798 115.639C194.393 115.684 194.168 115.684 194.168 115.684C194.168 115.639 195.113 115.594 196.419 115.011C197.094 114.742 197.814 114.248 198.579 113.665C199.345 113.037 200.065 112.274 200.74 111.422C201.416 110.525 201.956 109.628 202.406 108.776C202.811 107.879 203.171 107.071 203.351 106.398C203.847 104.963 203.847 104.021 203.892 104.021Z" fill="#263238"/>
<g opacity="0.3">
<g opacity="0.3">
<path opacity="0.3" d="M270.835 156.054C272.771 155.112 273.221 152.6 273.401 150.492C273.986 144.257 274.572 137.977 275.157 131.742C275.427 128.782 275.562 125.462 273.491 123.354C271.6 121.425 268.584 121.335 265.883 121.335C249.181 121.38 234.415 121.874 217.713 121.919L218.568 151.03L270.835 156.054Z" fill="black"/>
</g>
</g>
<path d="M210.51 126.403L212.31 160.18C212.4 161.48 213.481 162.512 214.786 162.512L268.764 162.602C270.07 162.602 271.195 161.57 271.24 160.269L273.311 127.076C273.401 125.685 272.411 123.846 271.015 123.846H213.076C211.59 123.801 210.42 124.968 210.51 126.403Z" fill="#E0E0E0"/>
<path d="M210.509 126.404C210.509 126.404 210.509 126.359 210.509 126.269C210.509 126.179 210.509 126.045 210.509 125.91C210.554 125.596 210.689 125.058 211.14 124.609C211.365 124.385 211.68 124.161 212.04 123.981C212.4 123.802 212.85 123.802 213.346 123.802C214.291 123.802 215.371 123.802 216.632 123.802C221.584 123.802 228.742 123.757 237.566 123.757C246.389 123.757 256.924 123.757 268.584 123.712C269.304 123.712 270.069 123.712 270.79 123.712C271.15 123.712 271.6 123.802 271.915 123.981C272.23 124.206 272.5 124.475 272.726 124.789C273.176 125.417 273.401 126.179 273.401 126.987C273.356 127.749 273.311 128.512 273.266 129.274C273.086 132.325 272.906 135.42 272.681 138.56C272.275 144.884 271.87 151.433 271.465 158.117L271.375 159.373C271.33 159.776 271.33 160.18 271.285 160.629C271.105 161.481 270.475 162.244 269.664 162.513C269.259 162.692 268.809 162.692 268.404 162.692H267.143C266.333 162.692 265.478 162.692 264.667 162.692C261.381 162.692 258.139 162.692 254.988 162.692C248.64 162.692 242.518 162.647 236.665 162.647C230.813 162.647 225.276 162.602 220.098 162.602C218.793 162.602 217.532 162.602 216.272 162.602C215.957 162.602 215.642 162.602 215.326 162.602C215.011 162.602 214.696 162.602 214.381 162.558C213.751 162.468 213.166 162.154 212.76 161.66C212.355 161.167 212.13 160.539 212.175 159.956C212.13 159.373 212.13 158.79 212.085 158.207C212.04 157.04 211.95 155.919 211.905 154.842C211.455 146.051 211.095 138.963 210.825 134.029C210.689 131.562 210.599 129.678 210.554 128.377C210.509 127.749 210.509 127.256 210.509 126.897C210.509 126.583 210.509 126.404 210.509 126.404C210.509 126.404 210.509 126.583 210.554 126.897C210.554 127.211 210.599 127.704 210.644 128.377C210.735 129.678 210.825 131.562 210.96 134.029C211.23 138.963 211.635 146.051 212.085 154.842C212.13 155.919 212.22 157.085 212.265 158.207C212.31 158.79 212.31 159.373 212.355 159.956C212.355 160.539 212.535 161.122 212.94 161.571C213.301 162.019 213.841 162.333 214.426 162.378C214.696 162.423 215.011 162.378 215.326 162.423C215.642 162.423 215.957 162.423 216.272 162.423C217.532 162.423 218.793 162.423 220.098 162.423C225.276 162.423 230.858 162.423 236.665 162.423C242.518 162.423 248.64 162.423 254.988 162.468C258.184 162.468 261.381 162.468 264.667 162.468C265.478 162.468 266.333 162.468 267.143 162.468H268.404C268.809 162.468 269.214 162.468 269.574 162.333C270.34 162.064 270.925 161.391 271.06 160.584C271.105 160.18 271.105 159.776 271.15 159.373L271.24 158.117C271.645 151.433 272.05 144.884 272.455 138.56C272.636 135.42 272.861 132.28 273.041 129.274C273.086 128.512 273.131 127.749 273.176 127.032C273.176 126.314 272.951 125.596 272.545 124.968C272.14 124.385 271.51 123.937 270.79 123.981C270.069 123.981 269.304 123.981 268.584 123.981C256.924 123.981 246.389 123.981 237.566 123.981C228.742 123.981 221.584 123.937 216.632 123.937C215.416 123.937 214.291 123.937 213.346 123.937C212.85 123.937 212.445 123.937 212.085 124.116C211.725 124.251 211.41 124.475 211.185 124.699C210.735 125.148 210.599 125.686 210.554 126C210.464 126.224 210.509 126.404 210.509 126.404Z" fill="#263238"/>
<path d="M242.291 146.051C244.057 146.051 245.488 144.625 245.488 142.866C245.488 141.107 244.057 139.681 242.291 139.681C240.526 139.681 239.095 141.107 239.095 142.866C239.095 144.625 240.526 146.051 242.291 146.051Z" fill="white"/>
<path d="M245.444 142.866C245.399 142.866 245.444 142.597 245.309 142.104C245.174 141.61 244.858 140.938 244.138 140.399C243.778 140.13 243.328 139.906 242.833 139.816C242.337 139.726 241.752 139.771 241.212 139.951C240.672 140.13 240.176 140.534 239.771 141.027C239.411 141.521 239.186 142.149 239.186 142.822C239.186 143.494 239.411 144.122 239.771 144.616C240.131 145.109 240.672 145.513 241.212 145.692C241.752 145.917 242.337 145.917 242.833 145.827C243.328 145.737 243.778 145.513 244.138 145.244C244.858 144.705 245.174 144.033 245.309 143.539C245.444 143.136 245.444 142.866 245.444 142.866C245.444 142.866 245.444 142.956 245.444 143.091C245.444 143.225 245.444 143.405 245.354 143.674C245.264 144.167 244.948 144.885 244.183 145.468C243.823 145.737 243.373 146.006 242.833 146.096C242.292 146.186 241.707 146.186 241.122 145.961C240.537 145.737 239.996 145.378 239.591 144.84C239.186 144.302 238.961 143.629 238.961 142.911C238.961 142.194 239.186 141.521 239.591 140.982C239.996 140.444 240.537 140.04 241.122 139.861C241.707 139.637 242.292 139.637 242.833 139.726C243.373 139.816 243.823 140.085 244.183 140.354C244.903 140.938 245.219 141.655 245.354 142.149C245.399 142.418 245.444 142.597 245.444 142.732C245.489 142.822 245.489 142.866 245.444 142.866Z" fill="#263238"/>
<path d="M212.31 130.128C212.355 130.128 212.626 135.779 212.896 142.822C213.166 149.819 213.301 155.516 213.256 155.516C213.211 155.516 212.941 149.864 212.671 142.822C212.4 135.824 212.22 130.128 212.31 130.128Z" fill="#263238"/>
<path d="M196.058 86.0781C195.742 85.809 197.138 80.516 197.138 80.516C197.138 80.516 193.491 74.5501 193.401 72.6213C193.311 70.6925 194.842 66.7452 194.842 66.7452L205.331 64.0538C205.331 64.0538 208.708 70.2888 209.383 72.4868C210.058 74.6847 208.213 82.1757 208.213 82.1757L206.412 86.0333C206.457 86.0781 201.1 90.2946 196.058 86.0781Z" fill="#FFCEB5"/>
<path d="M193.402 73.7875C193.402 73.7875 192.952 72.9801 192.276 71.455C191.601 69.8851 190.791 68.36 192.276 67.4628C193.132 66.9246 193.852 67.1937 193.852 67.1937C193.852 67.1937 193.627 65.8929 194.437 65.3546C195.248 64.8612 196.013 65.22 196.013 65.22C196.013 65.22 195.743 63.3361 196.913 62.5735C198.354 61.5867 199.839 62.4838 199.839 62.4838C199.839 62.4838 198.939 54.32 198.849 53.8715C198.579 52.3015 199.164 50.8661 200.74 51.2698C201.325 51.4044 201.64 52.0324 202.316 54.6789C202.991 57.3254 204.071 61.9007 204.071 61.9007C204.071 61.9007 205.917 65.0855 206.772 66.8349C207.628 68.5842 209.383 72.5316 209.519 73.5632C209.879 76.2546 208.303 79.8431 208.303 79.8431L197.138 80.4711C197.138 80.5159 193.852 74.5501 193.402 73.7875Z" fill="#FFCEB5"/>
<path d="M194.122 67.5526C194.167 67.5526 194.482 68.0012 194.978 68.7637C195.248 69.1674 195.518 69.616 195.878 70.1094C196.058 70.3785 196.238 70.6477 196.373 70.9617C196.508 71.2757 196.598 71.6345 196.508 72.0382C196.418 72.3971 196.193 72.7559 195.788 72.8456C195.428 72.9802 195.068 72.8456 194.797 72.711C194.527 72.5765 194.257 72.3971 194.032 72.2625C193.807 72.0831 193.627 71.9485 193.447 71.8139C193.087 71.5448 192.817 71.2757 192.592 71.0962C192.411 70.9168 192.321 70.8271 192.321 70.8271C192.366 70.7822 192.772 71.1411 193.537 71.6794C193.897 71.9485 194.347 72.2625 194.888 72.5316C195.158 72.6662 195.473 72.711 195.743 72.6213C196.013 72.5316 196.238 72.2625 196.283 71.9485C196.373 71.6345 196.283 71.3205 196.148 71.0065C196.013 70.7374 195.878 70.4682 195.698 70.1991C195.383 69.7057 195.113 69.2571 194.842 68.8534C194.347 68.0909 194.077 67.5975 194.122 67.5526Z" fill="#6F4C47"/>
<path d="M203.261 68.5389C203.216 68.5389 203.126 67.7315 203.396 66.7895C203.621 65.8476 204.026 65.1299 204.071 65.1747C204.116 65.2196 203.801 65.9373 203.621 66.8344C203.396 67.7764 203.351 68.5389 203.261 68.5389Z" fill="#6F4C47"/>
<path d="M207.672 70.9154C206.681 69.8837 205.331 69.2557 203.935 68.9866C202.54 68.6726 201.099 68.7175 199.703 68.8072C198.578 68.8969 197.272 69.2109 196.732 70.1977C196.192 71.2294 196.822 72.5751 197.858 73.203C198.848 73.7862 200.109 73.831 201.279 73.7413C202.449 73.6516 203.62 73.4273 204.79 73.6068" fill="#FFCEB5"/>
<path d="M204.791 73.6077C204.791 73.6077 204.476 73.5628 203.891 73.5628C203.306 73.5628 202.495 73.6525 201.505 73.7871C201.01 73.8319 200.424 73.8768 199.839 73.8768C199.254 73.8319 198.579 73.7422 197.948 73.4282C197.318 73.1143 196.778 72.5311 196.553 71.8134C196.418 71.4546 196.373 71.0509 196.463 70.6472C196.553 70.2435 196.778 69.8846 197.093 69.6155C197.723 69.0772 198.534 68.8978 199.254 68.7632C199.974 68.6735 200.695 68.6287 201.37 68.6287C202.72 68.6287 203.936 68.8081 204.926 69.1669C205.917 69.4809 206.592 69.9743 207.042 70.3332C207.267 70.5126 207.447 70.6472 207.537 70.7817C207.627 70.8715 207.672 70.9612 207.672 70.9612C207.672 70.9612 207.447 70.7369 206.997 70.4229C206.547 70.1089 205.827 69.6604 204.881 69.3464C203.936 69.0324 202.72 68.8529 201.37 68.8529C200.695 68.8529 199.974 68.8978 199.299 68.9875C198.579 69.0772 197.813 69.2566 197.273 69.7501C197.003 69.9743 196.823 70.3332 196.733 70.6472C196.643 71.006 196.688 71.3649 196.823 71.6789C197.048 72.3517 197.543 72.89 198.083 73.1591C198.669 73.4731 199.299 73.5628 199.884 73.6077C200.469 73.6525 201.01 73.6077 201.55 73.5628C202.54 73.4731 203.396 73.3834 203.981 73.4282C204.251 73.4282 204.476 73.4731 204.656 73.4731C204.701 73.5628 204.791 73.6077 204.791 73.6077Z" fill="#6F4C47"/>
<path d="M194.166 67.6873C195.337 69.4815 196.372 71.4103 197.363 73.2943C197.633 73.8326 197.948 74.4157 198.488 74.7297C198.893 74.9988 199.974 74.5054 200.424 74.3708L197.183 67.0593" fill="#FFCEB5"/>
<path d="M197.228 67.1045C197.228 67.1045 197.363 67.2839 197.498 67.6428C197.678 68.0465 197.903 68.5399 198.218 69.1679C198.803 70.4687 199.614 72.3078 200.559 74.3712L200.604 74.5057L200.469 74.5506C200.109 74.6851 199.749 74.8197 199.343 74.9094C199.163 74.9543 199.028 74.9991 198.848 74.9991C198.758 74.9991 198.668 74.9991 198.578 74.9543C198.488 74.9543 198.398 74.8646 198.353 74.8197C198.083 74.6403 197.858 74.3712 197.723 74.1469C197.408 73.6086 197.138 73.1152 196.912 72.6218C196.417 71.6349 195.922 70.7827 195.517 70.065C195.112 69.3473 194.797 68.7642 194.526 68.3605C194.301 67.9568 194.166 67.7325 194.166 67.7325C194.166 67.7325 194.346 67.9119 194.616 68.3156C194.887 68.7193 195.247 69.2576 195.652 69.9753C196.057 70.693 196.552 71.5452 197.092 72.5321C197.363 73.0255 197.588 73.5637 197.903 74.0123C198.083 74.2366 198.263 74.4609 198.488 74.6403C198.668 74.8197 198.983 74.73 199.298 74.6851C199.659 74.5954 200.064 74.4609 200.424 74.3263L200.334 74.4609C199.433 72.3975 198.623 70.5584 198.083 69.2576C197.813 68.6296 197.588 68.0913 197.453 67.6876C197.273 67.2839 197.228 67.1045 197.228 67.1045Z" fill="#6F4C47"/>
<path d="M196.373 64.906C197.409 67.5076 198.444 70.1093 199.48 72.6661C199.705 73.2043 199.93 73.7875 200.335 74.236C200.74 74.6846 201.325 74.9986 201.911 74.9089C202.721 74.7743 203.261 73.922 203.306 73.1146C203.351 72.3072 203.036 71.4998 202.721 70.7372C201.776 68.3599 201.055 65.9377 200.47 63.4706" fill="#FFCEB5"/>
<path d="M200.425 63.5157C200.425 63.5157 200.47 63.6055 200.515 63.74C200.56 63.9195 200.605 64.1437 200.695 64.4129C200.875 64.996 201.1 65.8931 201.416 66.9248C201.731 67.9565 202.181 69.2125 202.721 70.5581C202.991 71.231 203.306 71.9487 203.351 72.8009C203.396 73.2046 203.306 73.6532 203.126 74.0569C202.946 74.4606 202.631 74.8195 202.181 74.954C201.731 75.1335 201.235 75.0437 200.875 74.8643C200.47 74.6849 200.2 74.326 199.975 74.0121C199.525 73.2944 199.3 72.5767 199.03 71.9038C198.489 70.5581 198.039 69.347 197.589 68.2705C197.184 67.2836 196.869 66.4314 196.644 65.8483C196.553 65.5791 196.463 65.3548 196.418 65.1754C196.373 65.0409 196.328 64.9511 196.328 64.9511C196.328 64.9511 196.373 65.0409 196.463 65.1754C196.553 65.3548 196.643 65.5791 196.734 65.8483C197.004 66.4314 197.319 67.2836 197.724 68.2705C198.129 69.3022 198.624 70.5133 199.21 71.859C199.48 72.5318 199.705 73.2944 200.155 73.9223C200.38 74.2363 200.65 74.5055 201.01 74.6849C201.37 74.8643 201.776 74.9092 202.136 74.7746C202.496 74.64 202.766 74.326 202.946 73.9672C203.126 73.6083 203.171 73.2495 203.171 72.8458C203.126 72.0832 202.811 71.3655 202.541 70.6927C202.001 69.347 201.596 68.0911 201.28 67.0145C200.965 65.938 200.74 65.0857 200.605 64.4577C200.56 64.1437 200.47 63.9195 200.47 63.74C200.425 63.6055 200.425 63.5157 200.425 63.5157Z" fill="#6F4C47"/>
<path d="M196.598 83.1177C196.598 83.1177 189.485 104.021 189.17 105.052C188.9 106.084 190.565 113.53 193.672 115.324C196.778 117.119 202.766 109.717 203.531 107.026C204.296 104.335 203.531 99.7593 203.531 99.7593L208.348 81.7272" fill="#FFCEB5"/>
<path d="M203.531 79.8881C203.531 79.933 203.261 79.933 202.856 79.7984C202.451 79.6638 201.911 79.4396 201.46 78.991C200.965 78.5424 200.695 78.049 200.515 77.6453C200.38 77.2416 200.335 76.9725 200.38 76.9725C200.47 76.9276 200.695 77.9593 201.64 78.8116C202.541 79.6638 203.576 79.7984 203.531 79.8881Z" fill="#6F4C47"/>
<path d="M331.339 181.442C331.339 181.517 263.926 181.667 180.751 181.667C97.5751 181.667 30.1624 181.592 30.1624 181.442C30.1624 181.368 97.5751 181.218 180.751 181.218C263.926 181.293 331.339 181.368 331.339 181.442Z" fill="#263238"/>
<path d="M32.98 136.6L22.5095 163.133L62.0035 178.605L72.474 152.072L32.98 136.6Z" fill="#EBEBEB"/>
<path d="M72.4752 152.443C72.4752 152.443 72.3137 152.54 71.9585 152.636C71.5709 152.765 71.0864 152.958 70.4727 153.151C69.1485 153.602 67.2753 154.245 65.0144 155.018C60.3636 156.595 53.9686 158.719 46.8954 161.1L46.7339 161.164L46.6693 161.036C46.6047 160.939 46.5401 160.81 46.4755 160.714C42.729 154.181 39.3377 148.26 36.8508 143.948C35.6558 141.824 34.6868 140.086 33.9763 138.831C33.6533 138.252 33.3949 137.801 33.2011 137.447C33.0396 137.125 32.9427 136.964 32.9427 136.932C32.9427 136.932 33.0719 137.093 33.2657 137.383C33.4595 137.737 33.7502 138.187 34.1055 138.734C34.816 139.957 35.8495 141.663 37.0769 143.787C39.5961 148.099 43.0196 153.988 46.7985 160.489C46.8631 160.617 46.9277 160.714 46.9923 160.81L46.7662 160.714C53.8394 158.397 60.2344 156.273 64.9175 154.728C67.2107 153.988 69.084 153.377 70.4082 152.958C71.0218 152.765 71.5386 152.604 71.8939 152.508C72.3137 152.475 72.4752 152.443 72.4752 152.443Z" fill="#E0E0E0"/>
<path d="M22.5429 163.482C22.4783 163.385 26.9031 160.907 32.3938 157.947C37.8844 154.986 42.3738 152.669 42.4061 152.766C42.4707 152.862 38.0459 155.34 32.5552 158.301C27.0646 161.261 22.5752 163.578 22.5429 163.482Z" fill="#E0E0E0"/>
<path d="M55.6479 157.593C55.7448 157.561 57.2628 162.323 59.0069 168.212C60.7833 174.101 62.1075 178.929 62.0106 178.961C61.9137 178.993 60.3957 174.23 58.6516 168.341C56.8753 162.452 55.551 157.625 55.6479 157.593Z" fill="#E0E0E0"/>
<path d="M113.311 116.626L90.0375 126.726L96.8727 142.362L120.147 132.262L113.311 116.626Z" fill="#EBEBEB"/>
<path d="M113.464 116.787C113.464 116.787 113.432 116.884 113.335 117.077C113.238 117.302 113.109 117.56 112.947 117.914C112.592 118.654 112.075 119.716 111.429 121.003C110.137 123.642 108.329 127.214 106.359 131.204L106.326 131.301L106.229 131.269C106.165 131.237 106.1 131.237 106.003 131.204C101.643 130.014 97.7028 128.952 94.8283 128.179C93.4072 127.793 92.2768 127.471 91.437 127.246C91.0495 127.15 90.7588 127.053 90.5327 126.989C90.3389 126.924 90.2097 126.892 90.2097 126.892C90.2097 126.892 90.3389 126.892 90.5327 126.957C90.7588 127.021 91.0818 127.085 91.4693 127.182C92.3091 127.407 93.4395 127.697 94.8606 128.051C97.7351 128.823 101.708 129.853 106.068 131.011C106.133 131.043 106.229 131.043 106.294 131.076L106.165 131.14C108.167 127.182 109.976 123.578 111.3 120.971C111.946 119.684 112.495 118.654 112.883 117.914C113.077 117.56 113.206 117.302 113.335 117.077C113.4 116.884 113.464 116.787 113.464 116.787Z" fill="#E0E0E0"/>
<path d="M97.0266 142.533C96.962 142.501 97.7695 139.605 98.8353 136.065C99.9012 132.493 100.805 129.628 100.87 129.661C100.935 129.693 100.127 132.589 99.0614 136.129C97.9956 139.669 97.0912 142.533 97.0266 142.533Z" fill="#E0E0E0"/>
<path d="M108.525 126.089C108.557 126.024 111.205 127.408 114.467 129.178C117.729 130.916 120.313 132.396 120.281 132.46C120.249 132.525 117.6 131.141 114.338 129.371C111.108 127.601 108.492 126.121 108.525 126.089Z" fill="#E0E0E0"/>
</g>
<defs>
<clipPath id="clip0">
<rect width="357" height="218" fill="white"/>
</clipPath>
</defs>
</svg>
