<svg width="358" height="358" viewBox="0 0 358 358" fill="none" xmlns="http://www.w3.org/2000/svg">
<path d="M215.502 23.6905L296.517 128.959L78.6619 74.8354L199.929 19.7759C205.375 17.308 211.843 18.9249 215.502 23.6905Z" fill="#EBEBEB"/>
<path d="M297.624 129.64L215.843 23.3504C212.098 18.4146 205.461 16.7126 199.759 19.3507L77.2153 74.8357L297.624 129.64ZM205.29 19.0954C209.035 19.0954 212.694 20.7974 215.077 23.9461L295.326 128.193L79.9385 74.6655L200.099 20.2017C201.801 19.4358 203.588 19.0954 205.29 19.0954Z" fill="#E0E0E0"/>
<path d="M55.0893 204.103L256.01 254.056C260.861 255.248 265.796 252.269 267.073 247.419L296.517 128.96L77.8961 74.5811L48.4516 193.04C47.1751 197.976 50.1535 202.911 55.0893 204.103Z" fill="#F0F0F0"/>
<path d="M91.3418 81.0482L167.081 158.404L281.54 132.704L294.645 71.9426C296.177 65.3899 292.177 58.9223 285.625 57.3054L120.02 16.1171C113.468 14.5002 106.83 18.4999 105.213 25.0526L91.3418 81.0482Z" fill="white"/>
<path d="M177.463 152.362L267.413 246.397C266.052 251.758 260.605 255.077 255.244 253.715L55.8553 204.102C50.494 202.741 47.1751 197.294 48.5367 191.933L48.7069 191.167L166.315 149.724C170.229 148.362 174.569 149.383 177.463 152.362Z" fill="#E0E0E0"/>
<path d="M206.172 66.266L270.998 82.3923L269.355 88.9988L204.529 72.8725L206.172 66.266Z" fill="#E0E0E0"/>
<path d="M123.053 63.4366L266.826 99.2021L264.977 106.634L121.204 70.8689L123.053 63.4366Z" fill="#E0E0E0"/>
<path d="M118.471 81.6356L262.244 117.401L260.396 124.833L116.622 89.0679L118.471 81.6356Z" fill="#E0E0E0"/>
<path d="M115.51 105.898L120.02 110.408L240.692 141.895L256.435 138.236L257.031 136.534L113.723 100.877L113.127 103.345L115.51 105.898Z" fill="#E0E0E0"/>
<path d="M146.401 137.299L200.695 150.83L217.375 147L136.104 126.832L146.401 137.299Z" fill="#E0E0E0"/>
<path d="M180.782 155.766C180.782 155.766 180.867 155.851 180.952 156.021C181.122 156.191 181.292 156.446 181.633 156.702C182.228 157.297 183.079 158.234 184.101 159.425C186.313 161.723 189.462 165.127 193.376 169.211C201.206 177.466 212.098 188.869 224.097 201.379C236.182 213.889 247.245 225.122 255.244 233.206C259.244 237.206 262.563 240.44 264.86 242.738C265.967 243.844 266.903 244.695 267.498 245.291C267.754 245.546 268.009 245.801 268.179 245.971C268.349 246.142 268.434 246.227 268.434 246.142C268.434 246.142 268.349 246.056 268.179 245.886C268.009 245.716 267.754 245.461 267.498 245.205C266.903 244.61 266.052 243.674 264.945 242.567C262.648 240.27 259.414 237.036 255.499 232.951C247.5 224.867 236.522 213.548 224.438 201.039C212.439 188.529 201.461 177.126 193.547 168.956C189.632 164.871 186.398 161.552 184.186 159.255C183.079 158.148 182.228 157.212 181.633 156.617C181.377 156.361 181.122 156.106 180.952 155.936C180.867 155.851 180.782 155.766 180.782 155.766Z" fill="#FAFAFA"/>
<path d="M48.7068 191.168C48.7919 191.253 73.8113 182.573 104.702 171.765C135.594 160.873 160.613 152.022 160.528 151.852C160.443 151.767 135.424 160.447 104.532 171.255C73.7262 182.147 48.7068 191.083 48.7068 191.168Z" fill="#FAFAFA"/>
<path d="M87.6825 77.3887C87.6825 77.3887 87.7676 77.4738 87.8527 77.5589C88.0229 77.7291 88.1931 77.8993 88.3633 78.1546C88.8739 78.6652 89.5547 79.4311 90.4057 80.3672C92.1928 82.3245 94.7458 85.1327 97.8945 88.5367C104.277 95.4298 113.127 104.791 123.084 115.088C133.041 125.385 142.146 134.491 148.784 141.128C152.103 144.362 154.826 147 156.698 148.872C157.634 149.723 158.315 150.489 158.911 151C159.166 151.255 159.336 151.425 159.507 151.511C159.677 151.596 159.677 151.681 159.677 151.681C159.677 151.681 159.592 151.596 159.507 151.511C159.336 151.34 159.166 151.17 158.996 150.915C158.485 150.404 157.805 149.638 156.869 148.787C154.996 146.915 152.358 144.192 149.039 140.958C142.402 134.32 133.381 125.13 123.424 114.833C113.468 104.535 104.617 95.1745 98.1498 88.3665C94.916 84.9625 92.363 82.2394 90.4908 80.2821C89.6398 79.346 88.8739 78.6652 88.4484 78.0695C88.1931 77.8142 88.0229 77.644 87.9378 77.4738C87.7676 77.3887 87.7676 77.3887 87.6825 77.3887Z" fill="#FAFAFA"/>
<path d="M180.782 155.766C180.782 155.766 180.867 155.766 181.122 155.681C181.377 155.596 181.633 155.596 181.973 155.511C182.739 155.341 183.93 155 185.377 154.66C188.27 153.894 192.525 152.873 197.717 151.681C208.184 149.213 222.651 145.98 238.735 142.576C254.733 139.086 269.285 135.853 279.753 133.3C284.944 132.023 289.199 130.917 292.092 130.151C293.539 129.726 294.645 129.47 295.411 129.215C295.751 129.13 296.092 129.045 296.262 128.96C296.432 128.875 296.517 128.875 296.517 128.875C296.517 128.875 296.432 128.875 296.177 128.96C295.922 129.045 295.666 129.045 295.326 129.13C294.56 129.3 293.369 129.64 291.922 129.981C289.029 130.747 284.774 131.768 279.582 132.959C269.115 135.427 254.648 138.661 238.564 142.065C222.566 145.554 208.014 148.788 197.546 151.341C192.355 152.617 188.1 153.724 185.207 154.49C183.76 154.915 182.654 155.17 181.888 155.426C181.548 155.511 181.207 155.596 181.037 155.681C180.867 155.766 180.782 155.766 180.782 155.766Z" fill="#FAFAFA"/>
<path d="M91.3418 81.0484C91.3418 81.0484 91.4269 80.7931 91.5971 80.1974C91.7673 79.6017 91.9375 78.8359 92.1928 77.8147C92.7034 75.6872 93.5544 72.5385 94.5756 68.5388C96.618 60.4543 99.5114 48.7956 103.171 34.4138C103.596 32.6267 104.107 30.7545 104.532 28.8823C104.788 27.9462 105.043 27.0101 105.213 25.9889C105.298 25.4783 105.468 25.0528 105.639 24.5422C105.724 24.0316 105.979 23.6061 106.149 23.1806C106.915 21.3084 108.277 19.6915 109.894 18.415C111.596 17.2236 113.553 16.2875 115.68 16.1173C116.787 15.9471 117.808 16.0322 118.914 16.2024C120.02 16.3726 121.042 16.713 122.148 16.9683C124.361 17.4789 126.573 18.0746 128.786 18.6703C133.296 19.7766 137.976 20.968 142.742 22.1594C161.804 26.925 182.824 32.1161 204.78 37.6476C226.821 43.094 247.755 48.285 266.903 53.0506C271.668 54.242 276.349 55.3483 280.859 56.5397C281.965 56.795 283.072 57.1354 284.263 57.3907C285.369 57.646 286.476 57.9013 287.497 58.4119C288.518 58.8374 289.454 59.4331 290.305 60.1139C291.156 60.7947 291.922 61.6457 292.518 62.4967C293.198 63.3477 293.624 64.3689 294.049 65.305C294.39 66.3262 294.645 67.3474 294.73 68.3686C294.986 70.411 294.39 72.4534 293.964 74.4107C293.113 78.4104 292.262 82.1547 291.496 85.814C288.433 100.366 285.88 112.11 284.178 120.279C283.327 124.364 282.646 127.513 282.221 129.64C281.965 130.747 281.795 131.513 281.71 132.108C281.625 132.619 281.54 132.959 281.54 132.959C281.54 132.959 281.625 132.704 281.71 132.108C281.795 131.513 282.05 130.747 282.221 129.64C282.731 127.513 283.412 124.364 284.263 120.279C286.05 112.11 288.603 100.366 291.752 85.8991C292.518 82.2398 293.369 78.4954 294.22 74.4958C294.645 72.5385 295.241 70.4961 294.986 68.2835C294.9 67.1772 294.645 66.156 294.305 65.1348C293.879 64.1136 293.454 63.0924 292.773 62.2414C292.092 61.3053 291.411 60.4543 290.475 59.7735C289.624 59.0076 288.603 58.497 287.582 57.9864C286.561 57.4758 285.369 57.3056 284.263 56.9652C283.157 56.7099 282.05 56.3695 280.859 56.1142C276.349 55.0079 271.668 53.8165 266.903 52.6251C247.84 47.8595 226.821 42.6685 204.78 37.137C182.739 31.6906 161.804 26.4995 142.657 21.7339C137.891 20.5425 133.211 19.4362 128.701 18.2448C126.403 17.6491 124.19 17.1385 121.978 16.6279C120.871 16.3726 119.765 16.0322 118.659 15.862C117.553 15.6918 116.446 15.6918 115.34 15.862C113.127 16.1173 111.085 17.0534 109.383 18.2448C107.681 19.5213 106.319 21.2233 105.553 23.0955C105.383 23.6061 105.128 24.0316 105.043 24.5422C104.873 25.0528 104.788 25.4783 104.617 25.9889C104.362 26.925 104.107 27.9462 103.937 28.8823C103.511 30.7545 103 32.6267 102.575 34.4138C99.0008 48.8807 96.1073 60.5394 94.1501 68.6239C93.1289 72.6236 92.363 75.7723 91.8524 77.8998C91.5971 78.9209 91.4269 79.7719 91.2567 80.2825C91.3418 80.7931 91.3418 81.0484 91.3418 81.0484Z" fill="#E0E0E0"/>
<path d="M5.81653 347.922C5.81653 348.092 82.7467 348.177 177.718 348.177C272.689 348.177 349.62 348.092 349.62 347.922C349.62 347.752 272.689 347.667 177.718 347.667C82.8318 347.667 5.81653 347.837 5.81653 347.922Z" fill="#263238"/>
<path d="M186.484 36.2011L194.908 42.5836L194.483 54.8379L202.227 48.7107L206.397 52.37L222.651 32.3716L186.484 36.2011Z" fill="#009ECD"/>
<path d="M198.057 45.1372C198.057 45.4776 194.483 54.7535 194.483 54.7535L202.227 48.6263L198.057 45.1372Z" fill="#009ECD"/>
<g opacity="0.3">
<path opacity="0.3" d="M198.057 45.1372C198.057 45.4776 194.483 54.7535 194.483 54.7535L202.227 48.6263L198.057 45.1372Z" fill="black"/>
</g>
<path d="M222.651 32.3716L198.057 45.1365L194.483 54.8379L194.908 42.5836L222.651 32.3716Z" fill="#009ECD"/>
<path opacity="0.1" d="M222.651 32.3716L198.057 45.1365L194.483 54.8379L194.908 42.5836L222.651 32.3716Z" fill="black"/>
<path d="M154.571 197.465C154.571 197.55 155.592 197.465 156.784 197.124C157.975 196.869 158.911 196.529 158.911 196.359C158.911 196.273 157.89 196.359 156.699 196.699C155.422 197.039 154.486 197.38 154.571 197.465Z" fill="#263238"/>
<path d="M147.593 199.167C147.593 199.252 148.189 199.252 148.955 199.082C149.635 198.912 150.231 198.656 150.231 198.571C150.231 198.486 149.635 198.486 148.87 198.656C148.104 198.827 147.508 199.082 147.593 199.167Z" fill="#263238"/>
<path d="M176.272 53.2208C176.272 53.3059 177.293 53.1357 178.484 52.8804C179.676 52.6251 180.612 52.3698 180.612 52.1996C180.612 52.1145 179.591 52.1145 178.399 52.4549C177.208 52.7102 176.272 53.0506 176.272 53.2208Z" fill="#263238"/>
<path d="M168.017 56.7097C168.102 56.7948 169.038 56.3693 170.059 55.8587C171.166 55.3481 172.017 54.8375 172.017 54.6673C171.932 54.5822 170.996 54.8375 169.889 55.4332C168.783 56.0289 168.017 56.6246 168.017 56.7097Z" fill="#263238"/>
<path d="M160.954 62.1569C161.039 62.242 161.805 61.6463 162.741 60.7953C163.677 60.0294 164.443 59.3486 164.358 59.1784C164.273 59.0933 163.422 59.6039 162.486 60.4549C161.464 61.3059 160.869 62.0718 160.954 62.1569Z" fill="#263238"/>
<path d="M155.507 69.3041C155.592 69.3892 156.188 68.5382 156.869 67.517C157.55 66.4958 158.06 65.6448 157.975 65.5597C157.89 65.4746 157.124 66.2405 156.443 67.2617C155.763 68.2829 155.337 69.219 155.507 69.3041Z" fill="#263238"/>
<path d="M152.359 77.6443C152.529 77.6443 152.784 76.7082 153.125 75.5168C153.465 74.3254 153.72 73.3893 153.55 73.3042C153.465 73.2191 152.954 74.1552 152.614 75.3466C152.359 76.6231 152.274 77.6443 152.359 77.6443Z" fill="#263238"/>
<path d="M151.933 86.5797C152.104 86.5797 152.018 85.5585 152.018 84.3671C152.018 83.1757 151.933 82.1545 151.848 82.1545C151.763 82.1545 151.593 83.1757 151.593 84.3671C151.593 85.6436 151.763 86.5797 151.933 86.5797Z" fill="#263238"/>
<path d="M154.231 95.26C154.316 95.1749 153.976 94.2388 153.635 93.1325C153.21 91.9411 152.869 91.005 152.784 91.0901C152.699 91.0901 152.784 92.1113 153.21 93.3027C153.635 94.409 154.146 95.26 154.231 95.26Z" fill="#263238"/>
<path d="M159.422 102.493C159.507 102.408 158.826 101.642 158.06 100.706C157.294 99.7703 156.614 99.0044 156.529 99.0895C156.443 99.1746 156.954 100.026 157.72 101.047C158.571 101.983 159.337 102.579 159.422 102.493Z" fill="#263238"/>
<path d="M166.996 107.344C167.081 107.259 166.145 106.749 165.038 106.153C163.932 105.557 163.081 105.132 162.996 105.217C162.911 105.302 163.677 105.983 164.868 106.578C165.889 107.174 166.911 107.43 166.996 107.344Z" fill="#263238"/>
<path d="M175.676 109.216C175.676 109.046 174.655 108.961 173.463 108.791C172.272 108.621 171.251 108.536 171.251 108.621C171.251 108.706 172.187 109.046 173.463 109.216C174.655 109.387 175.676 109.302 175.676 109.216Z" fill="#263238"/>
<path d="M184.441 107.514C184.356 107.429 183.42 107.684 182.229 108.025C181.037 108.365 180.101 108.62 180.101 108.791C180.101 108.876 181.122 108.876 182.314 108.45C183.59 108.195 184.526 107.684 184.441 107.514Z" fill="#263238"/>
<path d="M190.654 101.387C190.569 101.387 190.143 102.238 189.462 103.259C188.782 104.281 188.101 104.961 188.186 105.132C188.271 105.217 189.122 104.621 189.803 103.6C190.569 102.493 190.824 101.387 190.654 101.387Z" fill="#263238"/>
<path d="M186.909 94.4088C186.909 94.579 187.845 94.8343 188.781 95.5151C189.718 96.1959 190.313 97.0469 190.398 96.9618C190.483 96.9618 190.143 95.8555 189.037 95.0896C188.016 94.4088 186.909 94.3237 186.909 94.4088Z" fill="#263238"/>
<path d="M179.165 97.6431C179.25 97.7282 179.846 96.8772 180.697 96.0262C181.548 95.1752 182.484 94.8348 182.399 94.6646C182.399 94.5795 181.293 94.7497 180.356 95.6858C179.505 96.5368 179.08 97.558 179.165 97.6431Z" fill="#263238"/>
<path d="M178.91 106.323C178.995 106.238 178.739 105.302 178.484 104.11C178.229 102.919 178.229 101.898 178.059 101.898C177.974 101.898 177.803 102.919 178.059 104.195C178.229 105.472 178.825 106.323 178.91 106.323Z" fill="#263238"/>
<path d="M184.697 112.961C184.782 112.876 184.016 112.195 183.08 111.429C182.144 110.663 181.378 109.983 181.293 110.068C181.208 110.153 181.803 111.004 182.739 111.77C183.761 112.621 184.697 113.046 184.697 112.961Z" fill="#263238"/>
<path d="M192.696 117.131C192.781 117.045 191.845 116.535 190.739 116.024C189.633 115.514 188.696 115.173 188.611 115.258C188.526 115.343 189.462 115.854 190.569 116.365C191.675 116.875 192.611 117.216 192.696 117.131Z" fill="#263238"/>
<path d="M200.696 121.216C200.781 121.131 199.93 120.535 198.908 119.854C197.802 119.258 196.866 118.918 196.781 119.003C196.696 119.173 197.547 119.684 198.653 120.28C199.674 120.875 200.61 121.301 200.696 121.216Z" fill="#263238"/>
<path d="M207.504 127.003C207.589 126.918 206.993 126.067 206.142 125.216C205.291 124.365 204.44 123.769 204.355 123.854C204.27 123.939 204.951 124.705 205.802 125.556C206.653 126.407 207.333 127.088 207.504 127.003Z" fill="#263238"/>
<path d="M212.609 134.406C212.694 134.321 212.354 133.384 211.673 132.363C210.992 131.257 210.312 130.576 210.226 130.576C210.141 130.661 210.652 131.512 211.248 132.533C211.928 133.64 212.524 134.406 212.609 134.406Z" fill="#263238"/>
<path d="M215.843 142.746C215.928 142.746 215.843 141.725 215.418 140.534C214.992 139.342 214.567 138.406 214.396 138.491C214.311 138.576 214.567 139.512 214.907 140.704C215.418 141.81 215.758 142.746 215.843 142.746Z" fill="#263238"/>
<path d="M217.035 151.596C217.12 151.596 217.29 150.575 217.205 149.299C217.12 148.022 216.864 147.086 216.779 147.086C216.609 147.086 216.694 148.107 216.779 149.299C216.779 150.575 216.949 151.596 217.035 151.596Z" fill="#263238"/>
<path d="M215.843 160.447C215.928 160.447 216.269 159.511 216.524 158.32C216.779 157.128 216.864 156.107 216.694 156.107C216.524 156.107 216.354 157.043 216.013 158.234C215.843 159.426 215.758 160.447 215.843 160.447Z" fill="#263238"/>
<path d="M212.439 168.701C212.524 168.786 213.12 167.935 213.716 166.829C214.311 165.723 214.567 164.701 214.482 164.701C214.397 164.616 213.886 165.552 213.375 166.659C212.695 167.765 212.269 168.701 212.439 168.701Z" fill="#263238"/>
<path d="M206.993 175.935C207.078 176.02 207.844 175.339 208.695 174.403C209.546 173.467 210.056 172.531 209.886 172.531C209.801 172.446 209.12 173.212 208.269 174.148C207.589 174.999 206.908 175.85 206.993 175.935Z" fill="#263238"/>
<path d="M200.1 181.636C200.185 181.721 201.121 181.296 202.057 180.53C203.078 179.764 203.759 179.083 203.674 178.998C203.589 178.913 202.738 179.424 201.802 180.189C200.865 180.87 200.014 181.466 200.1 181.636Z" fill="#263238"/>
<path d="M192.015 185.466C192.015 185.551 193.036 185.381 194.228 184.87C195.419 184.445 196.27 183.849 196.185 183.764C196.1 183.679 195.164 184.019 194.058 184.445C192.951 184.955 192.015 185.381 192.015 185.466Z" fill="#263238"/>
<path d="M187.505 186.572C187.505 186.658 187.59 186.828 187.59 186.828C187.675 186.828 187.675 186.743 187.59 186.572C187.59 186.487 187.505 186.317 187.505 186.317C187.505 186.402 187.505 186.487 187.505 186.572Z" fill="#263238"/>
<path d="M194.028 164.362L203.326 161.308L205.238 167.13L195.94 170.184L194.028 164.362Z" fill="#009ECD"/>
<g opacity="0.3">
<path opacity="0.3" d="M194.028 164.362L203.326 161.308L205.238 167.13L195.94 170.184L194.028 164.362Z" fill="black"/>
</g>
<path d="M194.058 164.361C193.972 164.446 196.44 165.467 199.419 166.574L199.589 166.659L199.674 166.488C199.759 166.403 199.759 166.318 199.844 166.318C201.887 163.68 203.419 161.382 203.333 161.297C203.248 161.212 201.461 163.34 199.504 165.978C199.419 166.063 199.419 166.148 199.334 166.148L199.589 166.063C196.611 165.042 194.143 164.191 194.058 164.361Z" fill="#009ECD"/>
<g opacity="0.1">
<g opacity="0.1">
<path opacity="0.1" d="M194.058 164.361C193.972 164.446 196.44 165.467 199.419 166.574L199.589 166.659L199.674 166.488C199.759 166.403 199.759 166.318 199.844 166.318C201.887 163.68 203.419 161.382 203.333 161.297C203.248 161.212 201.461 163.34 199.504 165.978C199.419 166.063 199.419 166.148 199.334 166.148L199.589 166.063C196.611 165.042 194.143 164.191 194.058 164.361Z" fill="black"/>
</g>
</g>
<path d="M200.695 164.871C200.61 164.956 201.631 165.552 202.908 166.233C204.184 166.829 205.291 167.254 205.291 167.169C205.291 167.084 204.355 166.488 203.078 165.807C201.802 165.127 200.78 164.701 200.695 164.871Z" fill="#009ECD"/>
<g opacity="0.1">
<g opacity="0.1">
<path opacity="0.1" d="M200.695 164.871C200.61 164.956 201.631 165.552 202.908 166.233C204.184 166.829 205.291 167.254 205.291 167.169C205.291 167.084 204.355 166.488 203.078 165.807C201.802 165.127 200.78 164.701 200.695 164.871Z" fill="black"/>
</g>
</g>
<path d="M195.76 170.147C195.845 170.232 196.44 169.211 196.951 168.02C197.547 166.743 197.887 165.637 197.717 165.637C197.547 165.637 197.036 166.573 196.525 167.764C196.015 169.041 195.674 170.147 195.76 170.147Z" fill="#009ECD"/>
<g opacity="0.1">
<g opacity="0.1">
<path opacity="0.1" d="M195.76 170.147C195.845 170.232 196.44 169.211 196.951 168.02C197.547 166.743 197.887 165.637 197.717 165.637C197.547 165.637 197.036 166.573 196.525 167.764C196.015 169.041 195.674 170.147 195.76 170.147Z" fill="black"/>
</g>
</g>
<path d="M156.163 187.065L180.096 179.203L184.983 194.08L161.05 201.942L156.163 187.065Z" fill="#009ECD"/>
<path d="M156.103 186.997C156.103 186.997 156.443 187.167 157.209 187.508C157.975 187.848 158.996 188.189 160.188 188.699C162.741 189.635 166.23 190.997 170.144 192.444L170.315 192.529L170.4 192.359C170.485 192.188 170.655 192.018 170.825 191.848C173.463 188.444 175.761 185.295 177.463 182.998C178.229 181.891 178.91 180.955 179.42 180.274C179.846 179.594 180.101 179.253 180.101 179.253C180.101 179.253 179.761 179.594 179.25 180.189C178.739 180.87 177.974 181.721 177.208 182.827C175.506 185.04 173.038 188.189 170.485 191.593C170.315 191.763 170.229 191.933 170.059 192.103L170.315 192.018C166.4 190.571 162.826 189.295 160.273 188.444C159.081 188.018 158.06 187.678 157.209 187.423C156.528 187.082 156.103 186.997 156.103 186.997Z" fill="#009ECD"/>
<g opacity="0.2">
<g opacity="0.2">
<path opacity="0.2" d="M156.103 186.997C156.103 186.997 156.443 187.167 157.209 187.508C157.975 187.848 158.996 188.189 160.188 188.699C162.741 189.635 166.23 190.997 170.144 192.444L170.315 192.529L170.4 192.359C170.485 192.188 170.655 192.018 170.825 191.848C173.463 188.444 175.761 185.295 177.463 182.998C178.229 181.891 178.91 180.955 179.42 180.274C179.846 179.594 180.101 179.253 180.101 179.253C180.101 179.253 179.761 179.594 179.25 180.189C178.739 180.87 177.974 181.721 177.208 182.827C175.506 185.04 173.038 188.189 170.485 191.593C170.315 191.763 170.229 191.933 170.059 192.103L170.315 192.018C166.4 190.571 162.826 189.295 160.273 188.444C159.081 188.018 158.06 187.678 157.209 187.423C156.528 187.082 156.103 186.997 156.103 186.997Z" fill="black"/>
</g>
</g>
<path d="M173.123 188.274C173.038 188.359 175.676 189.806 178.91 191.338C182.144 192.955 184.867 194.146 184.952 193.976C185.037 193.891 182.399 192.444 179.165 190.912C175.846 189.381 173.208 188.189 173.123 188.274Z" fill="#009ECD"/>
<g opacity="0.2">
<g opacity="0.2">
<path opacity="0.2" d="M173.123 188.274C173.038 188.359 175.676 189.806 178.91 191.338C182.144 192.955 184.867 194.146 184.952 193.976C185.037 193.891 182.399 192.444 179.165 190.912C175.846 189.381 173.208 188.189 173.123 188.274Z" fill="black"/>
</g>
</g>
<path d="M160.613 202.06C160.699 202.146 161.975 199.593 163.337 196.359C164.698 193.125 165.719 190.572 165.634 190.487C165.549 190.402 164.273 192.955 162.911 196.189C161.464 199.337 160.443 201.975 160.613 202.06Z" fill="#009ECD"/>
<g opacity="0.2">
<g opacity="0.2">
<path opacity="0.2" d="M160.613 202.06C160.699 202.146 161.975 199.593 163.337 196.359C164.698 193.125 165.719 190.572 165.634 190.487C165.549 190.402 164.273 192.955 162.911 196.189C161.464 199.337 160.443 201.975 160.613 202.06Z" fill="black"/>
</g>
</g>
<path d="M178.74 182.828C180.442 184.02 182.739 183.679 183.931 182.063C185.122 180.361 184.782 178.063 183.165 176.871C181.463 175.68 179.165 176.02 177.974 177.637C176.697 179.254 177.038 181.637 178.74 182.828Z" fill="#263238"/>
<path d="M178.57 179.084C178.57 179.169 179.676 179.85 181.037 180.616C181.208 180.701 181.463 180.871 181.633 180.956L181.718 181.042L181.803 180.956C182.484 179.85 182.91 178.999 182.825 178.914C182.739 178.914 182.229 179.68 181.548 180.786L181.718 180.701C181.548 180.616 181.293 180.446 181.123 180.361C179.846 179.68 178.655 179.084 178.57 179.084Z" fill="white"/>
<path d="M171.489 166.979L184.021 162.862L186.571 170.624L174.039 174.741L171.489 166.979Z" fill="#009ECD"/>
<g opacity="0.2">
<path opacity="0.2" d="M171.489 166.979L184.021 162.862L186.571 170.624L174.039 174.741L171.489 166.979Z" fill="black"/>
</g>
<path d="M171.506 166.914C171.506 166.914 171.676 166.999 172.102 167.169C172.527 167.34 173.038 167.51 173.633 167.765C174.995 168.276 176.782 168.956 178.825 169.722H178.91L178.995 169.637C179.08 169.552 179.165 169.467 179.165 169.382C180.527 167.595 181.718 165.893 182.654 164.701C183.08 164.106 183.42 163.68 183.675 163.255C183.931 162.914 184.016 162.744 184.016 162.744C184.016 162.744 183.845 162.914 183.59 163.255C183.335 163.595 182.909 164.106 182.484 164.616C181.548 165.808 180.356 167.425 178.995 169.212C178.91 169.297 178.825 169.382 178.825 169.467H178.995C176.952 168.701 175.08 168.02 173.719 167.595C173.123 167.34 172.527 167.169 172.102 167.084C171.676 166.999 171.506 166.914 171.506 166.914Z" fill="#009ECD"/>
<g opacity="0.2">
<g opacity="0.2">
<path opacity="0.2" d="M171.506 166.914C171.506 166.914 171.676 166.999 172.102 167.169C172.527 167.34 173.038 167.51 173.633 167.765C174.995 168.276 176.782 168.956 178.825 169.722H178.91L178.995 169.637C179.08 169.552 179.165 169.467 179.165 169.382C180.527 167.595 181.718 165.893 182.654 164.701C183.08 164.106 183.42 163.68 183.675 163.255C183.931 162.914 184.016 162.744 184.016 162.744C184.016 162.744 183.845 162.914 183.59 163.255C183.335 163.595 182.909 164.106 182.484 164.616C181.548 165.808 180.356 167.425 178.995 169.212C178.91 169.297 178.825 169.382 178.825 169.467H178.995C176.952 168.701 175.08 168.02 173.719 167.595C173.123 167.34 172.527 167.169 172.102 167.084C171.676 166.999 171.506 166.914 171.506 166.914Z" fill="#009ECD"/>
</g>
</g>
<path d="M180.442 167.595C180.442 167.68 181.803 168.361 183.505 169.212C185.207 170.063 186.654 170.658 186.654 170.573C186.654 170.488 185.292 169.807 183.59 168.956C181.888 168.191 180.442 167.51 180.442 167.595Z" fill="#009ECD"/>
<g opacity="0.2">
<g opacity="0.2">
<path opacity="0.2" d="M180.442 167.595C180.442 167.68 181.803 168.361 183.505 169.212C185.207 170.063 186.654 170.658 186.654 170.573C186.654 170.488 185.292 169.807 183.59 168.956C181.888 168.191 180.442 167.51 180.442 167.595Z" fill="#009ECD"/>
</g>
</g>
<path d="M173.804 174.828C173.889 174.828 174.484 173.552 175.25 171.85C176.016 170.148 176.527 168.786 176.442 168.786C176.357 168.786 175.761 170.063 174.995 171.765C174.314 173.382 173.804 174.828 173.804 174.828Z" fill="#009ECD"/>
<g opacity="0.2">
<g opacity="0.2">
<path opacity="0.2" d="M173.804 174.828C173.889 174.828 174.484 173.552 175.25 171.85C176.016 170.148 176.527 168.786 176.442 168.786C176.357 168.786 175.761 170.063 174.995 171.765C174.314 173.382 173.804 174.828 173.804 174.828Z" fill="#009ECD"/>
</g>
</g>
<path d="M272.179 69.3052C274.562 78.8364 284.263 84.5381 293.794 82.1553C303.326 79.7725 309.027 70.0711 306.644 60.5399C304.262 51.0088 294.56 45.3071 285.029 47.6899C275.583 50.0727 269.796 59.774 272.179 69.3052Z" fill="#263238"/>
<path d="M282.817 55.2641C282.476 55.3492 284.519 61.3062 287.327 68.5397C287.752 69.5609 288.178 70.5821 288.518 71.6033L288.774 72.1139L289.284 71.9437C295.071 69.7311 299.241 67.8589 299.156 67.6036C299.071 67.3483 294.645 68.7099 288.859 70.8374L289.625 71.1778C289.284 70.1566 288.859 69.2205 288.433 68.1142C285.71 60.8807 283.157 55.179 282.817 55.2641Z" fill="white"/>
<path d="M53.729 320.775C50.5803 319.158 46.921 318.988 43.517 319.498C41.6448 319.839 39.6875 320.349 38.4961 321.711C37.2196 323.072 36.9643 325.54 38.411 326.732C39.262 327.412 40.4534 327.583 41.5597 327.497C44.2829 327.497 47.2614 326.987 49.3889 328.604C50.5803 329.54 51.4313 331.072 52.878 331.497C54.3247 331.923 55.9416 331.072 56.7075 329.795C57.4734 328.519 57.4734 326.902 57.133 325.37C57.3032 325.54 56.8777 322.392 53.729 320.775Z" fill="#009ECD"/>
<g opacity="0.2">
<path opacity="0.2" d="M53.729 320.775C50.5803 319.158 46.921 318.988 43.517 319.498C41.6448 319.839 39.6875 320.349 38.4961 321.711C37.2196 323.072 36.9643 325.54 38.411 326.732C39.262 327.412 40.4534 327.583 41.5597 327.497C44.2829 327.497 47.2614 326.987 49.3889 328.604C50.5803 329.54 51.4313 331.072 52.878 331.497C54.3247 331.923 55.9416 331.072 56.7075 329.795C57.4734 328.519 57.4734 326.902 57.133 325.37C57.3032 325.54 56.8777 322.392 53.729 320.775Z" fill="white"/>
</g>
<path d="M60.8772 306.989C59.005 309.712 55.2606 308.776 53.5586 307.159C51.8566 305.542 51.0907 303.074 50.495 300.776C48.9633 295.585 47.4315 290.054 48.6229 284.692C48.9633 283.076 49.559 281.544 50.6653 280.352C51.7715 279.161 53.4735 278.48 55.0904 278.906C56.9626 279.416 58.0689 281.203 58.9199 282.99C61.3878 288.096 62.6642 293.713 62.6642 299.415C62.6642 302.053 62.409 304.861 60.8772 306.989Z" fill="#009ECD"/>
<path d="M66.1533 310.903C64.1109 308.435 63.6854 304.861 64.6215 301.797C65.5576 298.734 67.6 296.096 69.9828 293.968C72.7911 291.5 76.11 289.543 79.5991 288.266C80.9607 287.756 82.4924 287.415 83.9391 287.501C85.3858 287.671 86.9176 288.352 87.5984 289.713C88.6196 291.67 87.5984 293.968 86.5772 295.925C84.705 299.329 82.5775 302.563 80.2798 305.542C78.4076 308.01 76.195 310.392 73.3017 311.499C70.4083 312.605 67.4298 312.435 65.898 310.478" fill="#009ECD"/>
<g opacity="0.1">
<path opacity="0.1" d="M66.1533 310.903C64.1109 308.435 63.6854 304.861 64.6215 301.797C65.5576 298.734 67.6 296.096 69.9828 293.968C72.7911 291.5 76.11 289.543 79.5991 288.266C80.9607 287.756 82.4924 287.415 83.9391 287.501C85.3858 287.671 86.9176 288.352 87.5984 289.713C88.6196 291.67 87.5984 293.968 86.5772 295.925C84.705 299.329 82.5775 302.563 80.2798 305.542C78.4076 308.01 76.195 310.392 73.3017 311.499C70.4083 312.605 67.4298 312.435 65.898 310.478" fill="black"/>
</g>
<path d="M61.0473 348.006C61.0473 348.006 60.9622 347.581 60.8771 346.815C60.792 345.879 60.7069 344.772 60.5367 343.411C60.3665 341.964 60.1963 340.347 59.7708 338.475C59.3453 336.603 58.7496 334.646 57.9837 332.688C57.1327 330.646 56.1966 328.859 55.0052 327.412C53.8138 325.965 52.5373 324.859 51.2608 324.263C49.9843 323.668 48.878 323.412 48.1121 323.242C47.3462 323.157 46.9207 323.072 46.9207 323.072C46.9207 323.072 47.3462 323.072 48.1972 323.072C48.9631 323.157 50.1545 323.327 51.5161 323.923C52.8777 324.519 54.2393 325.625 55.5158 327.072C56.7072 328.518 57.7284 330.391 58.5794 332.433C59.3453 334.475 60.0261 336.518 60.3665 338.39C60.7069 340.262 60.8771 341.964 61.0473 343.411C61.1324 344.858 61.2175 345.964 61.2175 346.815C61.0473 347.496 61.0473 348.006 61.0473 348.006Z" fill="#263238"/>
<path d="M60.7921 345.369C60.7921 345.369 60.7921 345.199 60.7921 344.773C60.7921 344.348 60.7921 343.837 60.7921 343.156C60.7921 341.71 60.7921 339.667 60.707 337.114C60.6219 332.008 60.1113 325.03 59.2603 317.286C58.4093 309.542 57.303 302.649 56.2818 297.713C56.0265 296.437 55.7712 295.33 55.601 294.394C55.3457 293.373 55.1755 292.522 55.0053 291.841C54.8351 291.16 54.75 290.65 54.6649 290.224C54.5798 289.884 54.5798 289.629 54.5798 289.629C54.5798 289.629 54.6649 289.799 54.75 290.139C54.8351 290.565 55.0053 291.075 55.2606 291.671C55.4308 292.352 55.6861 293.203 55.9414 294.139C56.1967 295.075 56.452 296.266 56.7073 297.458C57.8136 302.394 59.005 309.372 59.856 317.116C60.707 324.86 61.0474 331.838 61.1325 336.944C61.1325 339.497 61.1325 341.54 61.0474 342.986C61.0474 343.667 60.9623 344.178 60.9623 344.603C60.7921 345.199 60.7921 345.369 60.7921 345.369Z" fill="#263238"/>
<path d="M60.792 331.838C60.792 331.838 60.792 331.242 60.792 330.136C60.8771 329.03 61.0473 327.413 61.3026 325.541C61.643 323.583 62.0685 321.286 62.8344 318.818C63.5152 316.265 64.4513 313.627 65.6427 310.818C68.0255 305.287 71.1742 300.691 73.8974 297.883C74.5782 297.117 75.259 296.607 75.8547 296.096C76.1951 295.841 76.4504 295.585 76.7057 295.415C76.961 295.245 77.2163 295.075 77.4716 294.905C78.4077 294.309 78.9182 293.969 78.9182 293.969C79.0033 294.054 76.8759 295.33 74.2378 298.138C71.5997 300.947 68.451 305.457 66.1533 310.988C64.9619 313.712 64.0258 316.435 63.345 318.903C62.5791 321.371 62.1536 323.668 61.7281 325.626C61.3877 327.583 61.1324 329.115 61.0473 330.221C60.8771 331.242 60.792 331.838 60.792 331.838Z" fill="#263238"/>
<path d="M190.142 219.677H154.571L140.444 180.19H142.401L156.443 217.719L190.142 217.89V219.677Z" fill="#455A64"/>
<path d="M205.972 224.612L204.611 348.091H200.951L202.483 223.676L205.972 224.612Z" fill="#263238"/>
<path d="M129.638 223.42C130.148 225.803 126.404 348.347 126.404 348.347H123L125.808 223.42H129.638Z" fill="#263238"/>
<path d="M88.024 219.676H239.502V225.888H226.992L235.161 347.666L231.587 347.836L223.418 225.888H100.789L94.832 347.921H91.2578L97.2148 225.888H88.024V219.676Z" fill="#263238"/>
<path d="M173.548 343.411V334.05L191.079 333.88L191.249 347.581L190.143 347.666C185.292 348.006 165.549 348.942 162.315 348.006C158.656 346.985 173.548 343.411 173.548 343.411Z" fill="#009ECD"/>
<path d="M184.866 347.496C185.121 346.049 185.887 344.687 187.079 343.751C188.27 342.815 189.717 342.305 191.163 342.475L191.249 347.411L184.866 347.496Z" fill="#F5F5F5"/>
<path d="M166.229 345.453C166.229 345.453 161.038 346.985 161.719 347.836C162.4 348.687 182.398 348.431 191.249 347.58V347.155L167.931 347.58C167.846 347.666 167.251 345.453 166.229 345.453Z" fill="#F5F5F5"/>
<path d="M191.419 347.156C191.419 347.156 191.334 347.156 191.079 347.156C190.823 347.156 190.568 347.156 190.228 347.241C189.377 347.326 188.27 347.326 187.079 347.411C184.356 347.496 180.696 347.666 176.526 347.751C172.442 347.836 168.697 347.751 165.974 347.666C164.698 347.666 163.676 347.581 162.825 347.581C162.485 347.581 162.23 347.581 161.974 347.581C161.804 347.581 161.634 347.581 161.634 347.581C161.634 347.581 161.719 347.581 161.974 347.581C162.23 347.581 162.485 347.581 162.825 347.581C163.676 347.581 164.783 347.581 165.974 347.581C168.697 347.581 172.357 347.581 176.526 347.581C180.611 347.496 184.356 347.411 187.079 347.326C188.355 347.326 189.377 347.241 190.228 347.241C190.568 347.241 190.823 347.241 191.079 347.241C191.334 347.156 191.419 347.156 191.419 347.156Z" fill="#263238"/>
<path d="M167.846 347.921C167.761 347.921 167.761 347.155 167.251 346.389C166.74 345.623 166.144 345.197 166.144 345.197C166.144 345.112 166.91 345.453 167.421 346.304C167.932 347.155 167.846 347.921 167.846 347.921Z" fill="#263238"/>
<path d="M172.952 345.283C172.867 345.283 172.612 345.027 172.357 344.602C172.101 344.176 171.931 343.836 172.016 343.836C172.101 343.836 172.357 344.091 172.612 344.517C172.867 344.857 173.037 345.197 172.952 345.283Z" fill="#263238"/>
<path d="M174.399 344.517C174.399 344.603 174.059 344.347 173.803 344.092C173.463 343.837 173.293 343.581 173.293 343.496C173.293 343.411 173.633 343.666 173.888 343.922C174.229 344.177 174.399 344.432 174.399 344.517Z" fill="#263238"/>
<path d="M175.25 342.815C175.25 342.9 174.824 342.9 174.314 342.9C173.803 342.9 173.378 342.9 173.378 342.815C173.378 342.73 173.803 342.73 174.314 342.73C174.824 342.73 175.25 342.73 175.25 342.815Z" fill="#263238"/>
<path d="M175.59 341.624C175.59 341.709 175.165 341.879 174.569 341.964C173.973 342.049 173.463 341.879 173.548 341.794C173.548 341.709 174.059 341.794 174.569 341.709C175.08 341.709 175.505 341.624 175.59 341.624Z" fill="#263238"/>
<path d="M172.356 343.751C172.356 343.751 171.931 343.836 171.25 343.751C170.91 343.751 170.484 343.666 170.059 343.496C169.803 343.411 169.633 343.326 169.378 343.241C169.293 343.156 169.123 343.07 169.123 342.9C169.038 342.73 169.123 342.56 169.293 342.475C170.399 341.879 171.42 342.475 171.846 343.07C172.101 343.326 172.186 343.666 172.186 343.836C172.271 344.007 172.271 344.177 172.186 344.177C172.186 344.177 172.101 343.751 171.676 343.241C171.42 342.985 171.165 342.73 170.74 342.645C170.314 342.56 169.803 342.475 169.378 342.73C169.208 342.9 169.293 343.07 169.463 343.156C169.633 343.241 169.889 343.326 170.059 343.411C170.484 343.581 170.91 343.666 171.25 343.666C171.931 343.666 172.356 343.666 172.356 343.751Z" fill="#263238"/>
<path d="M172.101 343.751C172.101 343.751 171.931 343.496 171.931 342.986C171.931 342.73 172.016 342.475 172.271 342.135C172.442 341.879 172.697 341.539 173.208 341.539C173.463 341.539 173.633 341.879 173.548 342.049C173.548 342.22 173.463 342.39 173.378 342.56C173.208 342.815 173.037 343.071 172.867 343.241C172.527 343.581 172.271 343.751 172.186 343.666C172.186 343.666 172.442 343.496 172.697 343.071C172.867 342.9 173.037 342.645 173.122 342.39C173.293 342.135 173.378 341.709 173.122 341.709C172.867 341.709 172.527 341.964 172.357 342.22C172.186 342.475 172.101 342.73 172.016 342.986C172.016 343.496 172.101 343.751 172.101 343.751Z" fill="#263238"/>
<path d="M191.079 342.389C191.079 342.389 190.568 342.389 189.802 342.475C189.036 342.56 187.93 342.9 186.994 343.666C186.058 344.432 185.547 345.453 185.292 346.219C185.037 346.985 185.037 347.495 184.951 347.495C184.951 347.495 184.951 347.41 184.951 347.155C184.951 346.9 185.037 346.559 185.122 346.219C185.377 345.453 185.888 344.347 186.909 343.581C187.93 342.815 189.036 342.475 189.802 342.389C190.228 342.389 190.568 342.389 190.738 342.389C190.908 342.389 191.079 342.389 191.079 342.389Z" fill="#263238"/>
<path d="M189.121 335.156C189.206 335.156 189.292 336.773 189.292 338.73C189.377 340.688 189.292 342.305 189.292 342.305C189.206 342.305 189.121 340.688 189.121 338.73C189.036 336.773 189.121 335.156 189.121 335.156Z" fill="#263238"/>
<path d="M182.654 345.879C182.654 345.964 181.547 346.135 180.101 346.135C178.654 346.135 177.548 346.049 177.548 345.964C177.548 345.879 178.739 345.964 180.101 345.964C181.462 345.879 182.654 345.794 182.654 345.879Z" fill="#263238"/>
<path d="M186.057 345.794C186.143 345.794 185.972 346.049 185.887 346.304C185.802 346.56 185.717 346.815 185.632 346.815C185.547 346.815 185.547 346.56 185.632 346.219C185.802 345.879 186.057 345.794 186.057 345.794Z" fill="#263238"/>
<path d="M187.334 344.177C187.334 344.177 187.249 344.432 187.079 344.602C186.908 344.772 186.738 344.943 186.653 344.858C186.653 344.858 186.738 344.602 186.908 344.432C187.079 344.262 187.334 344.092 187.334 344.177Z" fill="#263238"/>
<path d="M189.206 343.411C189.206 343.496 188.951 343.496 188.696 343.581C188.44 343.666 188.27 343.836 188.185 343.751C188.1 343.751 188.27 343.496 188.61 343.326C188.951 343.24 189.206 343.326 189.206 343.411Z" fill="#263238"/>
<path d="M190.483 343.07C190.483 343.155 190.398 343.24 190.227 343.24C190.057 343.326 189.972 343.326 189.887 343.24C189.887 343.155 189.972 343.07 190.142 343.07C190.312 342.985 190.483 342.985 190.483 343.07Z" fill="#263238"/>
<path d="M138.998 333.965L142.827 325.455L158.911 332.518L153.465 345.113L152.443 344.772C147.933 343.07 129.466 335.837 126.913 333.624C124.02 331.071 138.998 333.965 138.998 333.965Z" fill="#009ECD"/>
<path d="M147.678 342.39C148.529 341.114 149.805 340.263 151.252 339.837C152.699 339.497 154.23 339.582 155.507 340.348L153.55 344.858L147.678 342.39Z" fill="#F5F5F5"/>
<path d="M131.594 332.773C131.594 332.773 126.233 332.093 126.488 333.114C126.743 334.135 145.04 342.219 153.465 345.028L153.635 344.687L132.19 335.497C132.105 335.497 132.445 333.284 131.594 332.773Z" fill="#F5F5F5"/>
<path d="M153.805 344.772C153.805 344.772 153.72 344.772 153.55 344.687C153.294 344.602 153.039 344.517 152.699 344.347C151.933 344.007 150.911 343.666 149.72 343.156C147.252 342.134 143.763 340.773 140.019 339.071C136.274 337.454 132.87 335.837 130.488 334.731C129.381 334.22 128.36 333.71 127.594 333.369C127.339 333.199 127.084 333.114 126.828 332.944C126.658 332.859 126.573 332.773 126.573 332.773C126.573 332.773 126.658 332.773 126.828 332.859C127.084 332.944 127.339 333.114 127.594 333.199C128.36 333.539 129.381 334.05 130.488 334.561C132.955 335.667 136.274 337.199 140.104 338.901C143.848 340.517 147.337 341.964 149.805 342.985C150.997 343.496 151.933 343.836 152.784 344.177C153.039 344.262 153.379 344.432 153.55 344.517C153.72 344.772 153.805 344.772 153.805 344.772Z" fill="#263238"/>
<path d="M131.934 335.752C131.849 335.752 132.105 334.986 132.02 334.135C131.934 333.199 131.424 332.603 131.509 332.603C131.509 332.518 132.105 333.199 132.19 334.135C132.36 335.071 132.02 335.752 131.934 335.752Z" fill="#263238"/>
<path d="M137.721 335.412C137.636 335.412 137.551 335.071 137.466 334.561C137.381 334.05 137.381 333.709 137.466 333.709C137.551 333.709 137.636 334.05 137.721 334.561C137.806 334.986 137.806 335.412 137.721 335.412Z" fill="#263238"/>
<path d="M139.338 335.327C139.253 335.327 139.083 335.071 138.912 334.731C138.742 334.391 138.657 334.05 138.742 334.05C138.827 334.05 138.998 334.306 139.168 334.646C139.338 334.986 139.423 335.242 139.338 335.327Z" fill="#263238"/>
<path d="M140.87 334.135C140.87 334.22 140.444 334.05 140.019 333.88C139.593 333.709 139.168 333.454 139.253 333.454C139.253 333.369 139.678 333.539 140.104 333.709C140.529 333.88 140.87 334.05 140.87 334.135Z" fill="#263238"/>
<path d="M141.636 333.199C141.636 333.284 141.125 333.284 140.615 333.028C140.019 332.858 139.678 332.518 139.678 332.518C139.678 332.433 140.104 332.688 140.7 332.858C141.125 333.028 141.636 333.114 141.636 333.199Z" fill="#263238"/>
<path d="M137.806 333.794C137.806 333.794 137.381 333.709 136.785 333.369C136.445 333.199 136.104 332.943 135.764 332.603C135.594 332.433 135.423 332.262 135.253 332.092C135.168 332.007 135.083 331.837 135.168 331.667C135.168 331.496 135.338 331.326 135.509 331.326C136.7 331.241 137.466 332.262 137.636 332.943C137.721 333.284 137.721 333.624 137.636 333.794C137.636 333.964 137.551 334.05 137.551 334.05C137.551 334.05 137.636 333.624 137.466 332.943C137.381 332.603 137.211 332.262 136.87 332.007C136.53 331.752 136.019 331.496 135.594 331.582C135.338 331.667 135.338 331.837 135.509 332.007C135.594 332.177 135.849 332.347 136.019 332.518C136.36 332.858 136.7 333.028 136.955 333.284C137.466 333.539 137.806 333.709 137.806 333.794Z" fill="#263238"/>
<path d="M137.551 333.709C137.551 333.709 137.466 333.369 137.721 332.944C137.806 332.688 138.061 332.518 138.317 332.348C138.572 332.178 138.997 332.007 139.423 332.178C139.678 332.348 139.678 332.603 139.508 332.773C139.423 332.944 139.253 333.029 139.168 333.199C138.912 333.369 138.657 333.539 138.402 333.624C137.976 333.795 137.636 333.794 137.636 333.794C137.636 333.794 137.891 333.709 138.317 333.539C138.572 333.454 138.742 333.284 138.997 333.114C139.253 332.944 139.508 332.603 139.253 332.433C138.997 332.263 138.657 332.433 138.402 332.603C138.146 332.773 137.976 332.944 137.806 333.114C137.636 333.369 137.551 333.709 137.551 333.709Z" fill="#263238"/>
<path d="M155.422 340.262C155.422 340.262 154.996 340.007 154.23 339.752C153.464 339.497 152.358 339.411 151.167 339.667C149.975 340.007 149.124 340.688 148.529 341.284C148.018 341.879 147.763 342.305 147.763 342.305C147.763 342.305 147.763 342.22 147.933 341.964C148.018 341.794 148.188 341.454 148.529 341.199C149.039 340.603 149.975 339.837 151.167 339.497C152.358 339.156 153.55 339.326 154.315 339.667C154.741 339.837 154.996 339.922 155.166 340.092C155.337 340.177 155.422 340.262 155.422 340.262Z" fill="#263238"/>
<path d="M156.698 332.859C156.783 332.859 156.188 334.391 155.422 336.178C154.656 338.05 153.975 339.497 153.89 339.497C153.805 339.497 154.401 337.965 155.166 336.178C155.932 334.306 156.613 332.774 156.698 332.859Z" fill="#263238"/>
<path d="M146.316 339.922C146.316 340.007 145.21 339.666 143.848 339.156C142.572 338.56 141.551 337.964 141.551 337.964C141.551 337.879 142.572 338.475 143.933 338.985C145.21 339.496 146.316 339.836 146.316 339.922Z" fill="#263238"/>
<path d="M149.465 341.283C149.465 341.369 149.295 341.454 149.039 341.624C148.784 341.794 148.699 341.964 148.614 341.964C148.529 341.964 148.614 341.709 148.869 341.454C149.125 341.283 149.465 341.283 149.465 341.283Z" fill="#263238"/>
<path d="M151.252 340.347C151.252 340.432 151.082 340.517 150.826 340.603C150.571 340.688 150.401 340.773 150.316 340.688C150.316 340.603 150.486 340.517 150.741 340.432C151.082 340.347 151.252 340.262 151.252 340.347Z" fill="#263238"/>
<path d="M153.294 340.433C153.294 340.518 153.039 340.348 152.784 340.348C152.528 340.348 152.273 340.348 152.273 340.348C152.273 340.263 152.443 340.092 152.784 340.177C153.124 340.177 153.294 340.348 153.294 340.433Z" fill="#263238"/>
<path d="M154.656 340.603C154.656 340.688 154.486 340.688 154.401 340.688C154.23 340.688 154.145 340.603 154.145 340.603C154.145 340.518 154.316 340.518 154.401 340.518C154.486 340.518 154.656 340.603 154.656 340.603Z" fill="#263238"/>
<path d="M298.134 271.417L310.814 176.786C311.154 174.233 309.027 172.02 306.559 172.275L276.008 174.828C273.2 175.084 270.987 177.296 270.732 180.104L263.328 269.715L298.134 271.417Z" fill="#009ECD"/>
<g opacity="0.2">
<path opacity="0.2" d="M298.134 271.417L310.814 176.786C311.154 174.233 309.027 172.02 306.559 172.275L276.008 174.828C273.2 175.084 270.987 177.296 270.732 180.104L263.328 269.715L298.134 271.417Z" fill="black"/>
</g>
<path d="M268.689 132.363C268.944 128.789 269.88 125.215 270.391 121.641C270.901 118.067 270.986 114.322 269.54 111.003C267.923 107.259 264.519 104.451 260.775 102.919C256.945 101.472 252.775 101.217 248.69 101.557C247.924 101.642 247.244 101.727 246.563 102.068C245.882 102.408 245.371 103.004 245.371 103.77C245.371 104.536 245.967 105.216 246.733 105.131C245.201 105.387 243.584 105.557 242.138 106.153C241.542 106.408 240.946 106.663 240.691 107.259C240.351 107.855 240.521 108.706 240.861 109.301C241.287 109.897 241.797 110.322 242.393 110.748C241.712 110.493 240.861 111.173 240.776 111.854C240.606 112.62 240.946 113.386 241.372 113.982C241.797 114.577 242.393 115.088 242.819 115.684C244.691 118.152 244.265 121.556 243.84 124.534" fill="#263238"/>
<path d="M268.349 153.553L251.159 153.212C250.904 151.255 250.564 143.511 250.564 143.511C250.564 143.511 243.415 142.83 242.82 135.767C242.309 128.619 242.479 112.194 242.479 112.194C250.478 108.11 260.095 108.79 267.498 113.811L268.605 114.577L268.349 153.553Z" fill="#FFBE9D"/>
<path d="M244.947 124.533C245.372 124.108 245.372 123.427 244.947 123.087C244.521 122.661 243.841 122.661 243.5 123.087C243.075 123.512 243.075 124.193 243.5 124.533C243.926 124.874 244.521 124.874 244.947 124.533Z" fill="#263238"/>
<path d="M243.16 122.746C243.245 122.831 243.926 122.321 244.947 122.236C245.968 122.151 246.649 122.661 246.734 122.491C246.819 122.406 246.649 122.236 246.309 121.98C245.968 121.725 245.458 121.555 244.862 121.64C244.266 121.725 243.756 121.98 243.5 122.236C243.16 122.491 243.075 122.746 243.16 122.746Z" fill="#263238"/>
<path d="M254.478 122.917C254.053 123.257 253.883 123.853 254.223 124.364C254.564 124.789 255.159 124.959 255.67 124.619C256.095 124.279 256.266 123.683 255.925 123.172C255.585 122.747 254.989 122.577 254.478 122.917Z" fill="#263238"/>
<path d="M253.798 123.002C253.883 123.087 254.563 122.576 255.585 122.491C256.606 122.406 257.287 122.917 257.372 122.747C257.457 122.662 257.287 122.491 256.946 122.236C256.606 121.981 256.095 121.811 255.5 121.896C254.904 121.981 254.393 122.236 254.138 122.491C253.883 122.662 253.798 122.917 253.798 123.002Z" fill="#263238"/>
<path d="M250.393 131.342C250.393 131.257 249.798 131.172 248.776 131.087C248.521 131.087 248.351 131.002 248.266 130.917C248.181 130.747 248.266 130.491 248.436 130.151C248.606 129.47 248.862 128.789 249.117 128.109C250.053 125.215 250.649 122.832 250.478 122.747C250.308 122.662 249.457 125.045 248.606 127.938C248.436 128.619 248.181 129.3 248.011 129.981C247.925 130.321 247.755 130.662 247.925 131.087C248.011 131.257 248.181 131.427 248.351 131.427C248.521 131.427 248.691 131.427 248.776 131.427C249.798 131.427 250.393 131.342 250.393 131.342Z" fill="#263238"/>
<path d="M253.627 132.193C254.648 131.512 250.904 133.895 248.947 133.895C248.947 133.895 250.223 135.682 252.18 134.746C254.308 133.895 253.627 132.193 253.627 132.193Z" fill="white"/>
<path d="M250.564 143.341C250.564 143.341 255.074 143.426 259.669 140.107C259.669 140.107 257.797 145.384 250.649 145.128L250.564 143.341Z" fill="#A36957"/>
<path d="M268.945 119.854L268.605 129.044C268.605 129.044 265.371 128.023 265.116 127.938C264.86 127.853 265.201 116.62 265.201 116.62C265.201 116.62 265.626 112.365 262.903 111.429C260.01 110.407 258.733 112.45 254.648 113.131C241.117 115.428 242.054 111.258 242.054 111.258C242.054 111.258 240.352 109.471 243.841 107.429C247.415 105.387 256.01 104.706 260.776 106.408C270.136 109.642 270.732 112.875 270.732 115.684C270.647 119.683 268.945 119.854 268.945 119.854Z" fill="#263238"/>
<path d="M267.754 127.513C267.754 127.513 267.839 127.598 268.009 127.683C268.179 127.768 268.434 127.853 268.775 127.768C269.456 127.598 270.051 126.577 270.136 125.555C270.222 125.045 270.136 124.449 269.966 124.024C269.796 123.598 269.541 123.258 269.2 123.173C268.86 123.088 268.605 123.258 268.52 123.428C268.434 123.598 268.434 123.683 268.434 123.683C268.434 123.683 268.349 123.598 268.349 123.343C268.349 123.258 268.434 123.088 268.605 123.002C268.775 122.917 268.945 122.832 269.2 122.917C269.626 123.002 270.051 123.428 270.222 123.939C270.392 124.449 270.477 125.045 270.477 125.641C270.307 126.832 269.626 127.938 268.69 128.108C268.264 128.194 267.924 128.023 267.754 127.853C267.754 127.683 267.754 127.598 267.754 127.513Z" fill="#A36957"/>
<path d="M199.759 202.401C199.759 202.401 191.249 201.975 189.547 202.741C186.568 204.017 177.803 217.804 178.314 217.804C179.675 217.804 182.399 217.804 182.399 217.804L196.015 212.613L199.248 213.464L199.759 202.401Z" fill="#FFBE9D"/>
<path d="M163.166 241.887C163.166 241.887 137.636 330.05 137.636 329.625C137.636 329.199 160.443 340.602 160.443 340.602L175.846 276.863L163.166 241.887Z" fill="#263238"/>
<path d="M160.954 341.198L136.87 329.369L137.891 326.135L162.23 337.964L160.954 341.198Z" fill="#455A64"/>
<path d="M164.187 308.69C164.272 308.69 164.613 308.179 164.783 307.499C164.953 306.818 165.038 306.137 164.953 306.137C164.868 306.137 164.528 306.648 164.357 307.328C164.102 308.094 164.017 308.69 164.187 308.69Z" fill="#455A64"/>
<path d="M162.571 313.881C162.656 313.881 162.996 313.371 163.166 312.69C163.422 312.009 163.422 311.413 163.337 311.328C163.251 311.328 162.911 311.839 162.741 312.52C162.571 313.201 162.486 313.796 162.571 313.881Z" fill="#455A64"/>
<path d="M160.953 318.988C161.038 318.988 161.379 318.477 161.549 317.796C161.804 317.115 161.89 316.52 161.719 316.435C161.634 316.435 161.294 316.945 161.124 317.626C160.868 318.307 160.783 318.988 160.953 318.988Z" fill="#455A64"/>
<path d="M159.251 324.093C159.336 324.093 159.677 323.583 159.932 322.902C160.187 322.221 160.273 321.625 160.102 321.54C160.017 321.54 159.677 322.051 159.422 322.732C159.166 323.413 159.081 324.008 159.251 324.093Z" fill="#455A64"/>
<path d="M157.464 329.199C157.55 329.284 157.89 328.688 158.145 328.007C158.401 327.327 158.486 326.731 158.401 326.646C158.315 326.561 157.975 327.156 157.72 327.837C157.379 328.518 157.294 329.114 157.464 329.199Z" fill="#455A64"/>
<path d="M155.592 334.22C155.677 334.305 156.018 333.71 156.273 333.029C156.528 332.348 156.613 331.752 156.528 331.667C156.443 331.582 156.103 332.178 155.848 332.859C155.592 333.539 155.422 334.22 155.592 334.22Z" fill="#455A64"/>
<path d="M156.954 336.348C156.954 336.348 157.124 336.007 157.464 335.412C157.805 334.816 158.145 333.88 158.656 332.774C159.592 330.561 160.783 327.412 161.975 323.923C163.166 320.434 164.102 317.2 164.868 314.903C165.208 313.796 165.464 312.86 165.719 312.179C165.889 311.499 165.974 311.158 165.974 311.158C165.974 311.158 165.804 311.499 165.549 312.094C165.294 312.69 164.953 313.626 164.613 314.818C163.847 317.2 162.741 320.349 161.634 323.753C160.443 327.242 159.337 330.391 158.486 332.688C158.06 333.71 157.72 334.646 157.464 335.327C157.039 336.007 156.869 336.348 156.954 336.348Z" fill="#455A64"/>
<path d="M281.965 235.76C281.71 231.079 284.433 261.375 261.116 262.226C237.798 262.991 190.228 262.651 190.228 262.651L195.844 339.496H167.931L162.06 257.715C162.06 257.715 159.081 234.058 175.25 230.994C185.377 229.122 248.521 228.526 248.521 228.526L281.965 235.76Z" fill="#263238"/>
<path d="M196.44 339.666H166.996V335.071L196.44 335.156V339.666Z" fill="#455A64"/>
<path d="M242.479 258.567C242.479 258.567 242.394 258.567 242.138 258.567C241.883 258.567 241.628 258.567 241.287 258.482C240.521 258.482 239.33 258.397 237.883 258.312C234.905 258.226 230.565 258.056 225.289 257.801C214.566 257.461 199.589 256.95 182.654 256.354H182.398V256.61C182.824 259.758 183.079 263.077 183.42 266.396C183.76 271.162 184.185 275.927 184.526 280.437C184.866 284.948 185.377 289.288 185.802 293.458C186.653 301.712 187.419 309.201 188.1 315.499C188.781 321.796 189.291 326.817 189.717 330.391C189.887 332.093 190.057 333.455 190.142 334.391C190.228 334.816 190.228 335.157 190.313 335.412C190.313 335.667 190.398 335.752 190.398 335.752C190.398 335.752 190.398 335.667 190.398 335.412C190.398 335.157 190.313 334.816 190.313 334.391C190.228 333.455 190.142 332.093 189.972 330.306C189.632 326.732 189.121 321.711 188.526 315.413C187.93 309.116 187.164 301.627 186.313 293.373C185.887 289.203 185.377 284.863 185.036 280.352C184.696 275.842 184.356 271.162 183.93 266.311C183.675 262.907 183.334 259.588 182.909 256.524L182.654 256.78C199.589 257.29 214.566 257.801 225.289 258.056C230.65 258.226 234.905 258.312 237.968 258.397C239.415 258.397 240.607 258.482 241.372 258.482C241.713 258.482 242.053 258.482 242.223 258.482C242.394 258.567 242.479 258.567 242.479 258.567Z" fill="#455A64"/>
<path d="M239.756 255.247C239.756 255.417 240.351 255.502 241.117 255.502C241.883 255.502 242.479 255.417 242.479 255.332C242.479 255.162 241.883 255.077 241.117 255.077C240.351 254.992 239.756 255.077 239.756 255.247Z" fill="#455A64"/>
<path d="M234.394 255.078C234.394 255.248 234.99 255.333 235.756 255.333C236.522 255.333 237.117 255.248 237.117 255.163C237.117 254.993 236.522 254.907 235.756 254.907C234.99 254.907 234.394 254.993 234.394 255.078Z" fill="#455A64"/>
<path d="M229.033 254.991C229.033 255.162 229.629 255.247 230.395 255.247C231.161 255.247 231.756 255.162 231.756 255.077C231.756 254.906 231.161 254.821 230.395 254.821C229.629 254.736 229.033 254.821 229.033 254.991Z" fill="#455A64"/>
<path d="M223.587 254.822C223.587 254.992 224.182 255.077 224.948 255.077C225.714 255.077 226.31 254.992 226.31 254.907C226.31 254.737 225.714 254.652 224.948 254.652C224.268 254.652 223.587 254.737 223.587 254.822Z" fill="#455A64"/>
<path d="M218.225 254.736C218.225 254.906 218.821 254.992 219.587 254.992C220.353 254.992 220.948 254.906 220.948 254.821C220.948 254.651 220.353 254.566 219.587 254.566C218.821 254.481 218.225 254.566 218.225 254.736Z" fill="#455A64"/>
<path d="M212.864 254.567C212.864 254.737 213.46 254.822 214.226 254.822C214.992 254.822 215.587 254.737 215.587 254.652C215.587 254.482 214.992 254.396 214.226 254.396C213.46 254.396 212.864 254.482 212.864 254.567Z" fill="#455A64"/>
<path d="M207.503 254.482C207.503 254.652 208.099 254.737 208.864 254.737C209.63 254.737 210.226 254.652 210.226 254.567C210.226 254.397 209.63 254.312 208.864 254.312C208.099 254.227 207.503 254.312 207.503 254.482Z" fill="#455A64"/>
<path d="M202.056 254.311C202.056 254.481 202.652 254.566 203.418 254.566C204.184 254.566 204.78 254.481 204.78 254.396C204.78 254.226 204.184 254.141 203.418 254.141C202.652 254.141 202.056 254.226 202.056 254.311Z" fill="#455A64"/>
<path d="M196.695 254.226C196.695 254.396 197.291 254.482 198.057 254.482C198.823 254.482 199.418 254.396 199.418 254.311C199.418 254.226 198.823 254.056 198.057 254.056C197.291 253.971 196.695 254.056 196.695 254.226Z" fill="#455A64"/>
<path d="M191.334 254.141C191.334 254.311 191.929 254.396 192.695 254.396C193.461 254.396 194.057 254.311 194.057 254.226C194.057 254.056 193.461 253.971 192.695 253.971C191.929 253.886 191.334 253.971 191.334 254.141Z" fill="#455A64"/>
<path d="M185.887 253.971C185.887 254.141 186.483 254.226 187.249 254.226C188.015 254.226 188.611 254.141 188.611 254.056C188.611 253.971 188.015 253.801 187.249 253.801C186.483 253.716 185.887 253.886 185.887 253.971Z" fill="#455A64"/>
<path d="M180.526 253.886C180.526 254.056 181.122 254.141 181.888 254.141C182.654 254.141 183.249 254.056 183.249 253.971C183.249 253.801 182.654 253.716 181.888 253.716C181.122 253.63 180.526 253.716 180.526 253.886Z" fill="#455A64"/>
<path d="M180.526 258.736C180.696 258.736 180.696 258.14 180.611 257.374C180.526 256.609 180.356 256.013 180.271 256.098C180.101 256.098 180.101 256.694 180.186 257.46C180.271 258.14 180.441 258.736 180.526 258.736Z" fill="#455A64"/>
<path d="M181.037 264.097C181.207 264.097 181.207 263.502 181.122 262.736C181.037 261.97 180.867 261.374 180.782 261.459C180.611 261.459 180.611 262.055 180.696 262.821C180.782 263.502 180.952 264.097 181.037 264.097Z" fill="#455A64"/>
<path d="M181.632 269.459C181.803 269.459 181.803 268.863 181.718 268.097C181.632 267.331 181.462 266.736 181.377 266.821C181.207 266.821 181.207 267.416 181.292 268.182C181.292 268.863 181.462 269.459 181.632 269.459Z" fill="#455A64"/>
<path d="M182.143 274.82C182.313 274.82 182.313 274.224 182.228 273.458C182.143 272.693 181.973 272.097 181.888 272.182C181.718 272.182 181.718 272.778 181.803 273.544C181.803 274.224 181.973 274.82 182.143 274.82Z" fill="#455A64"/>
<path d="M182.654 280.181C182.824 280.181 182.824 279.586 182.739 278.82C182.654 278.054 182.483 277.458 182.398 277.543C182.228 277.543 182.228 278.139 182.313 278.905C182.313 279.586 182.483 280.181 182.654 280.181Z" fill="#455A64"/>
<path d="M183.164 285.542C183.335 285.542 183.335 284.947 183.25 284.181C183.164 283.415 182.994 282.819 182.909 282.904C182.739 282.904 182.739 283.5 182.824 284.266C182.909 284.947 183.079 285.542 183.164 285.542Z" fill="#455A64"/>
<path d="M183.675 290.904C183.845 290.904 183.845 290.308 183.76 289.542C183.675 288.777 183.505 288.181 183.419 288.266C183.249 288.266 183.249 288.862 183.334 289.628C183.42 290.308 183.59 290.904 183.675 290.904Z" fill="#455A64"/>
<path d="M184.185 296.265C184.356 296.265 184.356 295.67 184.271 294.904C184.185 294.138 184.015 293.542 183.93 293.627C183.76 293.627 183.76 294.223 183.845 294.989C183.93 295.67 184.1 296.265 184.185 296.265Z" fill="#455A64"/>
<path d="M184.781 301.626C184.951 301.626 184.951 301.031 184.866 300.265C184.781 299.499 184.611 298.903 184.526 298.988C184.356 298.988 184.356 299.584 184.441 300.35C184.441 301.031 184.611 301.626 184.781 301.626Z" fill="#455A64"/>
<path d="M185.292 306.988C185.462 306.988 185.462 306.392 185.377 305.626C185.292 304.86 185.122 304.265 185.037 304.35C184.866 304.35 184.866 304.946 184.951 305.711C184.951 306.392 185.122 306.988 185.292 306.988Z" fill="#455A64"/>
<path d="M185.802 312.349C185.973 312.349 185.973 311.753 185.887 310.987C185.802 310.221 185.632 309.626 185.547 309.711C185.377 309.711 185.377 310.306 185.462 311.072C185.547 311.753 185.632 312.349 185.802 312.349Z" fill="#455A64"/>
<path d="M186.313 317.71C186.483 317.71 186.483 317.115 186.398 316.349C186.313 315.583 186.143 314.987 186.058 315.072C185.887 315.072 185.887 315.668 185.973 316.434C186.058 317.115 186.228 317.71 186.313 317.71Z" fill="#455A64"/>
<path d="M186.824 323.072C186.994 323.072 186.994 322.476 186.909 321.71C186.824 320.944 186.654 320.349 186.568 320.434C186.398 320.434 186.398 321.03 186.483 321.795C186.568 322.476 186.739 323.072 186.824 323.072Z" fill="#455A64"/>
<path d="M187.419 328.433C187.59 328.433 187.59 327.837 187.504 327.071C187.419 326.306 187.249 325.71 187.164 325.795C186.994 325.795 186.994 326.391 187.079 327.157C187.079 327.837 187.249 328.433 187.419 328.433Z" fill="#455A64"/>
<path d="M187.93 333.795C188.1 333.795 188.1 333.199 188.015 332.433C187.93 331.667 187.76 331.071 187.675 331.157C187.504 331.157 187.504 331.752 187.589 332.518C187.589 333.199 187.76 333.795 187.93 333.795Z" fill="#455A64"/>
<path d="M188.185 336.603C188.355 336.603 188.441 336.518 188.441 336.518C188.441 336.433 188.355 336.433 188.185 336.433C188.015 336.433 187.93 336.518 187.93 336.518C187.93 336.603 188.015 336.688 188.185 336.603Z" fill="#455A64"/>
<path d="M186.398 259.077C186.313 259.162 187.164 260.098 188.27 261.035C189.377 262.056 190.313 262.737 190.398 262.651C190.483 262.566 189.632 261.63 188.526 260.694C187.419 259.673 186.483 258.907 186.398 259.077Z" fill="#263238"/>
<path d="M184.441 260.098C184.356 260.183 185.717 260.949 187.419 261.714C189.121 262.48 190.568 262.991 190.653 262.906C190.738 262.821 189.377 262.055 187.675 261.289C185.973 260.523 184.526 259.927 184.441 260.098Z" fill="#263238"/>
<path d="M241.288 199.081C241.288 199.081 244.096 168.53 249.202 155.17L248.181 154.404L249.712 149.128L268.69 146.83L268.434 150.915C271.243 152.276 273.625 154.404 274.902 157.042C281.71 171.424 278.306 188.273 281.965 219.505C281.965 219.505 286.22 234.142 281.795 238.738L240.437 229.121L242.394 219.675C224.353 219.335 194.653 216.016 194.653 216.016L195.504 198.911C195.504 198.996 239.841 199.251 241.288 199.081Z" fill="#455A64"/>
<path d="M249.798 149.128C249.712 149.128 249.032 150.66 248.436 152.532C248.266 153.043 248.096 153.468 248.096 153.979C248.096 154.234 248.181 154.489 248.351 154.66C248.521 154.83 248.691 154.915 248.861 155C249.542 155.255 249.968 155.085 249.968 155C249.968 154.915 249.542 154.915 248.947 154.66C248.691 154.489 248.436 154.234 248.521 153.894C248.521 153.553 248.776 153.043 248.947 152.617C249.457 150.745 249.883 149.128 249.798 149.128Z" fill="#E0E0E0"/>
<path d="M245.202 171.849C245.202 172.019 252.861 172.104 262.222 172.104C271.583 172.104 279.242 172.019 279.242 171.849C279.242 171.679 271.668 171.594 262.222 171.594C252.861 171.594 245.202 171.764 245.202 171.849Z" fill="#263238"/>
<path d="M246.989 163.255C246.989 163.425 253.712 163.51 262.052 163.51C270.392 163.51 277.115 163.425 277.115 163.255C277.115 163.084 270.392 162.999 262.052 162.999C253.797 162.999 246.989 163.169 246.989 163.255Z" fill="#263238"/>
<path d="M249.542 155.68C249.542 155.851 255.159 155.936 262.052 155.936C268.945 155.936 274.562 155.851 274.562 155.68C274.562 155.51 268.945 155.425 262.052 155.425C255.074 155.425 249.542 155.595 249.542 155.68Z" fill="#263238"/>
<path d="M249.798 150.319C249.798 150.489 254.053 150.575 259.329 150.575C264.605 150.575 268.86 150.489 268.86 150.319C268.86 150.149 264.605 150.064 259.329 150.064C254.053 150.149 249.798 150.234 249.798 150.319Z" fill="#263238"/>
<path d="M244.011 180.103C244.011 180.274 252.095 180.359 261.967 180.359C271.923 180.359 279.923 180.274 279.923 180.103C279.923 179.933 271.838 179.848 261.967 179.848C252.095 179.933 244.011 180.018 244.011 180.103Z" fill="#263238"/>
<path d="M242.564 188.444C242.564 188.614 250.989 188.699 261.286 188.699C271.668 188.699 280.008 188.614 280.008 188.444C280.008 188.273 271.583 188.188 261.286 188.188C250.989 188.188 242.564 188.358 242.564 188.444Z" fill="#263238"/>
<path d="M241.628 196.103C241.628 196.273 250.223 196.358 260.775 196.358C271.413 196.358 279.923 196.273 279.923 196.103C279.923 195.933 271.328 195.848 260.775 195.848C250.223 195.848 241.628 196.018 241.628 196.103Z" fill="#263238"/>
<path d="M199.759 204.528C199.759 204.698 217.885 204.783 240.266 204.783C262.648 204.783 280.774 204.698 280.774 204.528C280.774 204.357 262.648 204.272 240.266 204.272C217.885 204.272 199.759 204.357 199.759 204.528Z" fill="#263238"/>
<path d="M199.504 211.166C199.504 211.336 217.8 211.421 240.266 211.421C262.818 211.421 281.029 211.336 281.029 211.166C281.029 210.995 262.733 210.91 240.266 210.91C217.715 210.996 199.504 211.081 199.504 211.166Z" fill="#263238"/>
<path d="M243.075 219.506C243.075 219.676 251.84 219.761 262.562 219.761C273.37 219.761 282.05 219.676 282.05 219.506C282.05 219.335 273.285 219.25 262.562 219.25C251.755 219.25 243.075 219.335 243.075 219.506Z" fill="#263238"/>
<path d="M241.032 227.164C241.032 227.334 250.478 227.419 262.222 227.419C273.966 227.419 283.412 227.334 283.412 227.164C283.412 226.994 273.966 226.908 262.222 226.908C250.563 226.908 241.032 226.994 241.032 227.164Z" fill="#263238"/>
<path d="M277.114 229.207C277.285 229.207 277.37 214.314 277.37 195.933C277.37 177.551 277.285 162.659 277.114 162.659C276.944 162.659 276.859 177.551 276.859 195.933C276.944 214.314 277.029 229.207 277.114 229.207Z" fill="#263238"/>
<path d="M266.903 228.356C267.073 228.356 267.158 210.144 267.158 187.763C267.158 165.297 267.073 147.085 266.903 147.085C266.732 147.085 266.647 165.297 266.647 187.763C266.647 210.144 266.818 228.356 266.903 228.356Z" fill="#263238"/>
<path d="M255.585 227.165C255.755 227.165 255.84 209.634 255.84 188.019C255.84 166.403 255.755 148.873 255.585 148.873C255.414 148.873 255.329 166.403 255.329 188.019C255.414 209.634 255.499 227.165 255.585 227.165Z" fill="#263238"/>
<path d="M246.138 229.121C246.308 229.121 246.394 215.335 246.394 198.4C246.394 181.38 246.308 167.679 246.138 167.679C245.968 167.679 245.883 181.465 245.883 198.4C245.883 215.42 245.968 229.121 246.138 229.121Z" fill="#263238"/>
<path d="M236.097 199.081C236.012 199.081 236.012 200.187 236.012 202.06C236.012 203.932 236.012 206.485 236.097 209.293C236.182 212.101 236.267 214.654 236.352 216.527C236.437 218.399 236.522 219.505 236.607 219.505C236.692 219.505 236.692 218.399 236.692 216.527C236.692 214.654 236.692 212.101 236.607 209.293C236.522 206.485 236.437 203.932 236.352 202.06C236.267 200.187 236.182 198.996 236.097 199.081Z" fill="#263238"/>
<path d="M225.374 199.421C225.289 199.421 225.289 200.528 225.289 202.23C225.289 203.932 225.289 206.314 225.374 208.953C225.459 211.591 225.544 213.973 225.629 215.675C225.714 217.377 225.799 218.484 225.885 218.484C225.97 218.484 225.97 217.377 225.97 215.675C225.97 213.973 225.97 211.591 225.885 208.953C225.799 206.314 225.714 203.932 225.629 202.23C225.544 200.443 225.459 199.421 225.374 199.421Z" fill="#263238"/>
<path d="M214.737 199.251C214.652 199.251 214.652 200.272 214.652 201.974C214.652 203.676 214.652 205.974 214.737 208.527C214.822 211.08 214.907 213.378 214.992 215.08C215.077 216.782 215.162 217.803 215.247 217.803C215.332 217.803 215.332 216.782 215.332 215.08C215.332 213.378 215.332 211.08 215.247 208.527C215.162 205.974 215.077 203.676 214.992 201.974C214.907 200.272 214.822 199.166 214.737 199.251Z" fill="#263238"/>
<path d="M204.014 198.911C203.929 198.911 203.929 199.932 203.929 201.549C203.929 203.166 203.929 205.378 204.014 207.931C204.099 210.399 204.184 212.612 204.269 214.314C204.354 215.931 204.439 216.952 204.525 216.952C204.61 216.952 204.61 215.931 204.61 214.314C204.61 212.697 204.61 210.484 204.525 207.931C204.439 205.463 204.354 203.166 204.269 201.549C204.184 199.932 204.099 198.911 204.014 198.911Z" fill="#263238"/>
<path d="M245.032 202.911C245.117 202.825 244.521 201.634 243.415 200.358C242.309 199.081 241.117 198.4 241.032 198.485C240.947 198.57 241.968 199.421 243.075 200.698C244.181 201.889 244.862 202.996 245.032 202.911Z" fill="#263238"/>
<path d="M242.564 203.081C242.649 203.081 242.904 201.889 242.394 200.528C241.883 199.166 240.947 198.315 240.862 198.485C240.777 198.57 241.458 199.421 241.968 200.698C242.394 201.974 242.479 203.081 242.564 203.081Z" fill="#263238"/>
<path d="M198.993 215.93C199.163 215.93 199.589 212.271 199.929 207.761C200.354 203.251 200.525 199.591 200.44 199.591C200.269 199.591 199.844 203.251 199.503 207.761C199.163 212.271 198.908 215.93 198.993 215.93Z" fill="#263238"/>
<path d="M198.482 202.826C198.482 202.911 198.738 203.081 198.738 203.506C198.738 203.676 198.738 203.932 198.568 204.102C198.397 204.272 198.142 204.272 197.887 204.187C197.631 204.102 197.461 203.847 197.461 203.591C197.461 203.336 197.631 203.166 197.802 202.996C198.142 202.74 198.482 202.825 198.482 202.74C198.568 202.74 198.142 202.4 197.631 202.74C197.376 202.911 197.121 203.166 197.036 203.591C196.951 204.017 197.291 204.442 197.717 204.613C198.142 204.783 198.653 204.698 198.908 204.357C199.163 204.017 199.163 203.677 199.163 203.421C198.908 202.826 198.482 202.74 198.482 202.826Z" fill="#263238"/>
<path d="M241.373 198.996C241.373 198.996 241.288 198.996 241.117 198.996C240.947 198.996 240.777 198.996 240.522 199.081C240.011 199.166 239.16 199.166 238.054 199.251C235.926 199.336 232.778 199.421 228.778 199.336C220.779 199.251 209.29 198.996 195.589 198.485H195.419V198.655C195.163 203.932 194.823 209.718 194.568 215.846V216.016H194.738C196.951 216.441 199.078 216.612 201.376 216.867C203.588 217.037 205.886 217.292 208.269 217.463C212.949 217.803 217.715 218.228 222.651 218.569C228.778 218.994 234.82 219.42 240.607 219.76C245.798 219.42 250.904 217.548 254.393 214.144C256.18 212.442 257.542 210.399 258.393 208.272C259.329 206.144 259.839 203.932 260.435 201.804C262.562 193.294 263.839 185.55 264.86 179.083C265.371 175.849 265.796 172.955 266.137 170.402C266.477 167.849 266.903 165.722 266.903 163.85C266.903 162.063 266.562 160.616 266.052 159.85C265.541 158.999 265.201 158.744 265.201 158.744C265.201 158.744 265.541 159.084 265.966 159.935C266.392 160.786 266.732 162.148 266.732 163.935C266.732 165.722 266.307 167.849 265.881 170.402C265.456 172.955 265.03 175.849 264.52 179.083C263.413 185.465 262.052 193.209 259.924 201.719C259.414 203.847 258.818 206.059 257.882 208.102C257.031 210.229 255.669 212.186 253.967 213.888C250.478 217.207 245.543 219.079 240.437 219.42C234.65 218.994 228.608 218.654 222.481 218.228C217.545 217.888 212.779 217.462 208.099 217.122C205.801 216.952 203.503 216.697 201.206 216.526C198.993 216.271 196.695 216.101 194.653 215.761L194.823 216.016C195.078 209.974 195.419 204.102 195.674 198.826L195.504 198.996C209.205 199.506 220.693 199.762 228.693 199.762C232.692 199.762 235.841 199.677 237.969 199.592C239.075 199.506 239.841 199.506 240.437 199.421C240.692 199.421 240.862 199.336 241.032 199.336C241.288 198.996 241.373 198.996 241.373 198.996Z" fill="#263238"/>
<path d="M241.373 198.996C241.373 198.996 241.543 198.57 241.798 197.634C242.054 196.783 242.394 195.507 242.82 193.975C243.671 190.826 244.692 186.486 245.713 181.721C246.819 176.955 247.84 172.615 248.521 169.466C248.862 167.935 249.202 166.743 249.372 165.722C249.542 164.871 249.713 164.36 249.628 164.36C249.628 164.36 249.457 164.786 249.202 165.722C248.947 166.573 248.606 167.849 248.181 169.381C247.33 172.53 246.309 176.87 245.202 181.636C244.096 186.401 243.16 190.741 242.394 193.975C242.054 195.507 241.798 196.698 241.543 197.719C241.458 198.485 241.373 198.996 241.373 198.996Z" fill="#263238"/>
<path d="M249.712 149.468C249.712 149.468 249.712 149.808 249.798 150.404C249.883 151 250.053 151.851 250.223 152.957C250.308 153.467 250.393 154.063 250.563 154.744C250.649 155.084 250.904 155.425 251.329 155.595C251.755 155.765 252.095 155.595 252.436 155.595C253.882 155.34 255.414 154.914 256.946 154.489C260.18 153.638 262.988 152.702 265.03 152.021C265.966 151.68 266.817 151.425 267.498 151.255C268.094 151.085 268.349 150.914 268.349 150.914C268.349 150.914 268.009 150.914 267.413 151.085C266.817 151.255 265.966 151.425 264.945 151.68C262.818 152.276 260.009 153.127 256.776 153.978C255.159 154.404 253.627 154.829 252.265 155.084C251.925 155.169 251.585 155.255 251.329 155.169C251.074 155.084 250.904 154.829 250.819 154.574C250.648 154.063 250.563 153.382 250.393 152.872C250.138 151.851 249.968 151 249.798 150.404C249.798 149.808 249.712 149.468 249.712 149.468Z" fill="#263238"/>
<path d="M264.605 267.246L258.648 348.006L256.18 347.41L257.116 269.033L264.605 267.246Z" fill="#263238"/>
<path d="M289.794 270.054L307.836 347.92H304.602L278.731 270.054H289.794Z" fill="#263238"/>
<path d="M242.054 270.054L217.375 347.92H214.737L234.31 270.054H242.054Z" fill="#263238"/>
<path d="M238.735 275.331L293.964 311.413V313.37L237.203 275.331H238.735Z" fill="#263238"/>
<path d="M285.625 275.33L225.714 315.583V312.519L283.837 273.543L285.625 275.33Z" fill="#263238"/>
<path d="M298.049 271.416L226.906 270.14C224.183 270.055 222.14 267.757 222.481 265.034C222.736 262.736 224.778 260.949 227.076 261.034L299.241 262.226L298.049 271.416Z" fill="#009ECD"/>
<g opacity="0.2">
<path opacity="0.2" d="M298.049 271.416L226.906 270.14C224.183 270.055 222.14 267.757 222.481 265.034C222.736 262.736 224.778 260.949 227.076 261.034L299.241 262.226L298.049 271.416Z" fill="black"/>
</g>
<path d="M305.283 216.442L298.134 271.416L242.053 270.055L242.224 236.61C242.139 231.079 246.904 226.654 252.436 227.164L295.241 230.994L300.857 172.7L306.559 172.19C309.112 171.934 311.24 174.147 310.814 176.7L305.283 216.442Z" fill="#009ECD"/>
</svg>
